<?xml version="1.0" encoding="UTF-8"?><svg id="Layer_3" xmlns="http://www.w3.org/2000/svg" viewBox="0 0 500 500"><defs><style>.cls-1{fill:#fff;}.cls-2{fill:#607896;}.cls-3{fill:#e1d4b1;}.cls-4{fill:#3c3c3b;}.cls-5{fill:#95393c;}</style></defs><path class="cls-5" d="m497.5,250c0,136.69-110.81,247.5-247.5,247.5S2.5,386.69,2.5,250,113.31,2.5,250,2.5s247.5,110.81,247.5,247.5Z"/><path class="cls-3" d="m484.63,250c0,129.58-105.05,234.63-234.63,234.63S15.37,379.58,15.37,250,120.42,15.37,250,15.37s234.63,105.05,234.63,234.63Z"/><path class="cls-2" d="m470.2,238.81c-.93-18.57-4.16-36.54-9.41-53.62l-63.47,11.19,55.82-32.23c-7.14-16.89-16.34-32.69-27.27-47.12l-55.78,32.2,41.39-49.32c-12.38-13.31-26.38-25.09-41.69-35.02l-41.41,49.35,22.04-60.56c-16.02-8.21-33.17-14.51-51.16-18.62l-22.04,60.56V31.19c-8.92-1.1-18-1.67-27.22-1.67s-18.3.57-27.22,1.67v64.42l-22.04-60.56c-17.99,4.11-35.15,10.41-51.16,18.62l22.04,60.56-41.41-49.35c-15.31,9.93-29.31,21.71-41.69,35.02l41.39,49.32-55.77-32.2c-10.92,14.43-20.13,30.23-27.27,47.12l55.83,32.23-63.47-11.19c-5.25,17.08-8.48,35.05-9.41,53.62l63.43,11.19-63.43,11.18c.93,18.57,4.16,36.54,9.41,53.63l63.47-11.19-55.83,32.23c7.15,16.89,16.35,32.69,27.27,47.12l55.78-32.2-41.39,49.33c12.38,13.31,26.38,25.09,41.69,35.02l41.41-49.35-22.04,60.56c16.02,8.21,33.17,14.51,51.16,18.62l22.04-60.56v64.42c8.92,1.1,18,1.67,27.22,1.67s18.3-.57,27.22-1.67v-64.42s22.04,60.56,22.04,60.56c17.99-4.11,35.14-10.41,51.16-18.62l-22.04-60.56,41.41,49.35c15.31-9.93,29.31-21.71,41.69-35.02l-41.39-49.33,55.78,32.2c10.92-14.43,20.13-30.23,27.27-47.12l-55.83-32.23,63.48,11.19c5.25-17.09,8.48-35.05,9.41-53.62l-63.43-11.19,63.43-11.19Z"/><path class="cls-3" d="m406.74,250c0,86.56-70.17,156.74-156.74,156.74s-156.74-70.17-156.74-156.74S163.44,93.26,250,93.26s156.74,70.18,156.74,156.74Z"/><path class="cls-5" d="m249.71,350.54c-.78,0-1.56-.01-2.34-.04l.03-1.16c.77.02,1.54.03,2.31.03v1.16Zm2.34-.02l-.02-1.16c.77-.02,1.54-.04,2.31-.07l.05,1.16c-.78.04-1.55.06-2.34.07Zm-7.02-.1c-.78-.04-1.56-.09-2.33-.14l.08-1.16c.77.06,1.54.1,2.31.14l-.06,1.16Zm11.69-.1l-.08-1.16c.77-.05,1.54-.11,2.31-.18l.1,1.16c-.78.07-1.55.13-2.33.18Zm-16.35-.24c-.78-.07-1.55-.16-2.33-.25l.14-1.15c.76.09,1.53.17,2.3.24l-.11,1.16Zm21.01-.18l-.13-1.15c.77-.09,1.53-.18,2.29-.29l.16,1.15c-.77.11-1.55.2-2.32.29Zm-25.66-.37c-.77-.11-1.54-.23-2.31-.35l.19-1.14c.76.12,1.52.24,2.29.35l-.16,1.15Zm30.29-.26l-.18-1.15c.76-.12,1.52-.25,2.28-.39l.21,1.14c-.76.14-1.54.27-2.31.4Zm-34.91-.5c-.77-.15-1.53-.3-2.29-.46l.24-1.14c.75.16,1.51.32,2.27.46l-.22,1.14Zm39.51-.34l-.24-1.14c.76-.16,1.51-.32,2.26-.5l.26,1.13c-.76.18-1.52.34-2.28.5Zm-44.09-.64c-.76-.18-1.52-.37-2.27-.57l.29-1.12c.75.2,1.49.38,2.24.56l-.27,1.13Zm48.64-.42l-.29-1.12c.75-.19,1.49-.39,2.23-.6l.32,1.12c-.75.21-1.5.42-2.26.61Zm-53.16-.77c-.75-.22-1.5-.44-2.24-.68l.35-1.11c.73.23,1.47.45,2.21.67l-.32,1.11Zm57.66-.5l-.34-1.11c.74-.23,1.48-.47,2.21-.71l.37,1.1c-.74.25-1.49.49-2.23.72Zm-62.13-.9c-.74-.25-1.47-.51-2.21-.78l.4-1.09c.72.27,1.45.52,2.18.77l-.37,1.1Zm66.58-.59l-.4-1.09c.73-.27,1.45-.53,2.17-.81l.42,1.08c-.73.28-1.46.56-2.2.82Zm-70.97-1.03c-.72-.29-1.44-.58-2.16-.88l.45-1.07c.71.3,1.42.59,2.13.87l-.43,1.08Zm75.35-.67l-.45-1.07c.72-.3,1.43-.6,2.13-.91l.47,1.06c-.71.31-1.43.62-2.15.92Zm-79.64-1.14c-.71-.32-1.42-.65-2.12-.98l.5-1.05c.69.33,1.39.65,2.09.97l-.47,1.06Zm83.93-.76l-.5-1.05c.7-.33,1.4-.67,2.09-1.01l.52,1.04c-.7.35-1.4.69-2.11,1.02Zm-88.14-1.25c-.7-.35-1.39-.71-2.07-1.08l.55-1.02c.68.36,1.36.72,2.05,1.06l-.52,1.04Zm92.33-.85l-.54-1.03c.68-.36,1.36-.73,2.03-1.11l.57,1.01c-.68.38-1.37.75-2.06,1.12Zm-96.45-1.36c-.68-.38-1.35-.77-2.02-1.17l.6-.99c.66.39,1.32.78,2,1.16l-.57,1.01Zm100.53-.93l-.59-1c.67-.39,1.32-.8,1.98-1.2l.61.99c-.66.41-1.33.82-2,1.21Zm-104.54-1.46c-.66-.42-1.31-.84-1.96-1.27l.64-.97c.64.42,1.29.84,1.94,1.25l-.62.98Zm108.52-1.02l-.63-.97c.65-.42,1.29-.85,1.92-1.29l.66.95c-.64.44-1.29.88-1.94,1.31Zm-112.42-1.56c-.64-.44-1.27-.9-1.9-1.36l.68-.94c.62.45,1.25.9,1.88,1.34l-.67.95Zm116.27-1.1l-.68-.94c.62-.45,1.24-.91,1.86-1.38l.7.92c-.62.47-1.25.94-1.88,1.39Zm-120.04-1.66c-.62-.48-1.23-.96-1.83-1.44l.73-.91c.6.49,1.21.96,1.82,1.43l-.71.92Zm123.77-1.18l-.72-.91c.6-.48,1.2-.97,1.79-1.46l.74.89c-.6.5-1.2.99-1.81,1.48Zm-127.41-1.76c-.6-.5-1.19-1.01-1.77-1.53l.77-.87c.58.51,1.16,1.01,1.75,1.51l-.75.89Zm131-1.24l-.76-.87c.58-.51,1.15-1.02,1.72-1.54l.78.85c-.57.53-1.15,1.05-1.74,1.56Zm-134.5-1.85c-.57-.53-1.14-1.06-1.7-1.61l.81-.83c.55.53,1.11,1.06,1.68,1.59l-.79.85Zm137.95-1.31l-.8-.83c.55-.53,1.11-1.08,1.65-1.62l.82.82c-.55.55-1.11,1.1-1.67,1.64Zm-141.31-1.94c-.55-.55-1.09-1.12-1.62-1.69l.85-.8c.53.56,1.06,1.12,1.6,1.67l-.83.81Zm144.6-1.38l-.84-.8c.53-.56,1.05-1.13,1.57-1.7l.86.78c-.52.58-1.05,1.15-1.59,1.72Zm-147.81-2.03c-.52-.58-1.03-1.17-1.54-1.76l.88-.76c.5.58,1.01,1.17,1.52,1.74l-.86.78Zm150.94-1.44l-.88-.76c.5-.58,1-1.17,1.49-1.77l.9.74c-.49.6-1,1.2-1.51,1.78Zm-153.99-2.12c-.49-.6-.98-1.21-1.46-1.83l.92-.71c.47.61.96,1.21,1.44,1.81l-.9.73Zm156.96-1.49l-.91-.72c.48-.6.95-1.21,1.41-1.83l.93.7c-.47.62-.94,1.24-1.42,1.85Zm-159.84-2.21c-.47-.62-.92-1.26-1.37-1.9l.95-.67c.45.63.9,1.26,1.36,1.87l-.93.69Zm162.64-1.53l-.95-.67c.45-.63.89-1.26,1.32-1.9l.96.65c-.44.65-.88,1.28-1.34,1.92Zm-165.35-2.29c-.44-.65-.86-1.3-1.28-1.96l.98-.62c.42.65.84,1.29,1.27,1.93l-.96.65Zm167.97-1.57l-.98-.63c.42-.65.83-1.3,1.23-1.95l.99.61c-.41.66-.82,1.32-1.24,1.98Zm-170.5-2.37c-.41-.67-.8-1.34-1.19-2.02l1.01-.58c.39.67.78,1.33,1.18,1.99l-.99.6Zm172.94-1.61l-1-.58c.39-.66.76-1.33,1.14-2.01l1.02.56c-.38.68-.76,1.36-1.15,2.03Zm-175.28-2.45c-.37-.69-.74-1.38-1.1-2.07l1.03-.53c.35.69.72,1.37,1.08,2.05l-1.02.56Zm177.53-1.63l-1.03-.54c.35-.68.7-1.37,1.04-2.06l1.04.51c-.34.7-.7,1.39-1.05,2.08Zm-179.68-2.54c-.34-.7-.67-1.41-1-2.12l1.06-.48c.32.7.65,1.4.99,2.1l-1.04.51Zm181.74-1.65l-1.05-.49c.32-.7.64-1.4.95-2.1l1.06.46c-.31.71-.63,1.42-.96,2.13Zm-183.69-2.62c-.31-.72-.61-1.44-.9-2.16l1.08-.43c.29.72.58,1.43.89,2.14l-1.07.46Zm185.55-1.66l-1.08-.44c.29-.71.57-1.43.85-2.15l1.09.41c-.28.73-.57,1.46-.86,2.18Zm-187.3-2.7c-.27-.73-.54-1.47-.8-2.21l1.1-.38c.25.73.52,1.46.79,2.18l-1.09.41Zm188.97-1.68l-1.09-.39c.26-.73.5-1.46.75-2.19l1.1.36c-.24.74-.49,1.48-.75,2.21Zm-190.51-2.76c-.24-.74-.47-1.49-.69-2.23l1.11-.33c.22.74.45,1.48.68,2.21l-1.1.35Zm191.97-1.69l-1.11-.34c.22-.73.44-1.48.64-2.22l1.11.31c-.21.75-.42,1.5-.65,2.24Zm-193.29-2.79c-.21-.75-.4-1.51-.58-2.26l1.13-.28c.19.75.38,1.5.58,2.24l-1.12.3Zm194.54-1.71l-1.13-.28c.19-.75.37-1.5.54-2.25l1.13.26c-.17.76-.35,1.52-.54,2.27Zm-195.66-2.83c-.17-.76-.33-1.52-.48-2.29l1.14-.22c.15.76.31,1.51.47,2.26l-1.13.25Zm196.69-1.73l-1.14-.23c.15-.75.3-1.51.43-2.27l1.14.21c-.14.77-.28,1.54-.44,2.3Zm-197.6-2.86c-.13-.77-.26-1.54-.37-2.31l1.15-.17c.11.76.23,1.52.37,2.28l-1.14.2Zm198.42-1.75l-1.15-.18c.12-.76.23-1.52.33-2.29l1.15.15c-.1.77-.21,1.55-.33,2.32Zm-199.11-2.88c-.1-.77-.18-1.55-.26-2.32l1.16-.12c.08.77.16,1.54.26,2.3l-1.15.14Zm199.71-1.76l-1.15-.12c.08-.76.16-1.53.22-2.3l1.16.1c-.07.78-.14,1.55-.22,2.33Zm-200.18-2.9c-.06-.78-.11-1.55-.16-2.34l1.16-.06c.04.77.09,1.54.16,2.31l-1.16.09Zm200.58-1.77l-1.16-.07c.04-.77.08-1.54.11-2.31l1.16.04c-.03.78-.07,1.56-.11,2.34Zm-200.84-2.91c-.02-.78-.04-1.55-.05-2.34h1.16c0,.76.02,1.53.05,2.3l-1.16.04Zm201.01-1.77l-1.16-.02c0-.42,0-.85,0-1.28v-1.04s1.16,0,1.16,0v1.05c0,.43,0,.86,0,1.29Zm-199.89-2.89l-1.16-.02c.01-.78.03-1.56.06-2.34l1.16.04c-.03.77-.05,1.54-.06,2.31Zm198.69-1.75c-.02-.77-.06-1.54-.1-2.31l1.16-.06c.04.78.07,1.55.1,2.34l-1.16.04Zm-198.52-2.87l-1.16-.07c.04-.78.1-1.56.17-2.33l1.16.1c-.06.76-.12,1.53-.16,2.31Zm198.27-1.74c-.06-.77-.12-1.54-.21-2.3l1.16-.12c.08.78.15,1.55.21,2.33l-1.16.09Zm-197.89-2.87l-1.15-.12c.08-.78.17-1.55.27-2.32l1.15.15c-.1.76-.19,1.53-.27,2.29Zm197.43-1.73c-.09-.77-.2-1.53-.31-2.29l1.15-.17c.11.77.22,1.54.32,2.32l-1.15.14Zm-196.83-2.85l-1.14-.17c.12-.77.24-1.54.38-2.31l1.14.21c-.14.76-.26,1.52-.38,2.28Zm196.16-1.72c-.13-.76-.27-1.52-.42-2.27l1.14-.22c.15.76.29,1.53.42,2.3l-1.14.2Zm-195.35-2.83l-1.14-.23c.16-.76.32-1.53.49-2.29l1.13.25c-.17.75-.33,1.5-.49,2.26Zm194.46-1.71c-.17-.75-.34-1.5-.52-2.25l1.13-.28c.19.76.36,1.52.53,2.28l-1.13.25Zm-193.44-2.8l-1.13-.28c.19-.76.39-1.51.6-2.26l1.12.31c-.21.74-.4,1.49-.59,2.24Zm192.34-1.69c-.2-.75-.41-1.49-.63-2.23l1.11-.33c.22.75.43,1.5.63,2.25l-1.12.3Zm-191.11-2.76l-1.11-.34c.23-.75.46-1.49.7-2.23l1.1.36c-.24.73-.47,1.47-.69,2.21Zm189.8-1.67c-.24-.74-.48-1.47-.73-2.2l1.1-.38c.25.74.5,1.48.74,2.23l-1.11.35Zm-188.36-2.72l-1.09-.39c.26-.73.53-1.47.8-2.19l1.08.41c-.27.72-.54,1.45-.8,2.17Zm186.84-1.66c-.27-.72-.55-1.44-.84-2.16l1.08-.43c.29.73.57,1.46.85,2.19l-1.09.4Zm-185.2-2.66l-1.07-.44c.29-.72.6-1.44.9-2.15l1.06.46c-.3.7-.6,1.41-.9,2.13Zm183.47-1.64c-.3-.71-.62-1.42-.94-2.12l1.05-.48c.33.71.64,1.42.95,2.14l-1.07.46Zm-181.64-2.59l-1.05-.49c.32-.71.66-1.41,1-2.11l1.04.51c-.34.69-.67,1.38-.99,2.08Zm179.71-1.63c-.34-.69-.68-1.39-1.03-2.07l1.03-.53c.36.7.71,1.4,1.05,2.1l-1.05.51Zm-177.68-2.51l-1.03-.53c.36-.69.73-1.38,1.1-2.06l1.02.56c-.37.67-.73,1.35-1.09,2.03Zm175.56-1.62c-.37-.68-.75-1.35-1.13-2.02l1.01-.58c.39.68.77,1.36,1.14,2.04l-1.02.55Zm-173.34-2.43l-1-.58c.39-.67.79-1.34,1.2-2.01l.99.61c-.4.66-.8,1.32-1.18,1.98Zm171.03-1.59c-.4-.66-.81-1.32-1.22-1.97l.98-.62c.42.66.83,1.32,1.24,1.99l-.99.6Zm-168.62-2.35l-.97-.63c.42-.65.85-1.3,1.29-1.95l.96.65c-.43.64-.86,1.28-1.27,1.93Zm166.13-1.55c-.43-.64-.87-1.28-1.31-1.91l.95-.67c.45.64.9,1.28,1.33,1.93l-.96.65Zm-163.53-2.27l-.95-.67c.45-.63.91-1.26,1.38-1.89l.93.7c-.46.62-.92,1.24-1.36,1.87Zm160.87-1.52c-.46-.62-.93-1.24-1.4-1.85l.92-.71c.48.62.95,1.24,1.42,1.87l-.93.69Zm-158.1-2.18l-.91-.72c.48-.61.97-1.22,1.47-1.82l.9.74c-.49.6-.97,1.19-1.45,1.8Zm155.26-1.47c-.49-.6-.98-1.19-1.49-1.78l.88-.75c.5.59,1.01,1.19,1.5,1.8l-.9.73Zm-152.32-2.1l-.88-.76c.51-.59,1.03-1.17,1.55-1.75l.86.78c-.52.57-1.03,1.15-1.53,1.73Zm149.31-1.42c-.52-.57-1.04-1.14-1.56-1.7l.85-.8c.53.57,1.06,1.14,1.58,1.72l-.86.77Zm-146.22-2.01l-.84-.8c.53-.56,1.08-1.12,1.63-1.68l.83.81c-.54.55-1.08,1.1-1.61,1.66Zm143.05-1.36c-.54-.55-1.09-1.09-1.64-1.63l.81-.83c.56.54,1.11,1.09,1.66,1.65l-.83.81Zm-139.8-1.92l-.8-.83c.56-.54,1.13-1.08,1.7-1.6l.78.85c-.57.52-1.13,1.05-1.69,1.59Zm136.48-1.3c-.57-.52-1.14-1.04-1.71-1.55l.77-.87c.58.52,1.16,1.04,1.73,1.57l-.79.85Zm-133.07-1.83l-.76-.87c.58-.51,1.18-1.02,1.78-1.52l.74.89c-.59.5-1.18,1-1.75,1.5Zm129.61-1.23c-.59-.5-1.18-.99-1.78-1.47l.73-.9c.61.49,1.21.98,1.8,1.49l-.75.89Zm-126.06-1.74l-.72-.91c.61-.49,1.23-.96,1.85-1.44l.7.92c-.61.47-1.22.94-1.82,1.42Zm122.47-1.16c-.61-.47-1.22-.93-1.85-1.39l.68-.94c.63.46,1.25.93,1.87,1.4l-.71.92Zm-118.79-1.64l-.68-.94c.63-.46,1.27-.91,1.91-1.35l.66.96c-.64.44-1.27.88-1.89,1.34Zm115.06-1.09c-.63-.44-1.27-.87-1.91-1.3l.64-.97c.65.43,1.29.87,1.93,1.31l-.66.95Zm-111.25-1.55l-.63-.97c.65-.43,1.31-.85,1.97-1.26l.62.99c-.65.41-1.31.82-1.95,1.24Zm107.4-1.01c-.65-.41-1.3-.81-1.96-1.21l.59-.99c.67.4,1.33.81,1.99,1.22l-.62.98Zm-103.47-1.44l-.59-1c.67-.4,1.35-.79,2.03-1.17l.57,1.01c-.67.38-1.34.76-2.01,1.16Zm99.52-.93c-.67-.38-1.34-.75-2.02-1.11l.55-1.02c.68.37,1.37.74,2.04,1.13l-.57,1.01Zm-95.48-1.34l-.54-1.02c.69-.37,1.38-.73,2.08-1.08l.52,1.04c-.69.34-1.37.7-2.06,1.06Zm91.41-.84c-.68-.35-1.37-.69-2.07-1.02l.5-1.04c.7.34,1.4.68,2.09,1.03l-.52,1.03Zm-87.27-1.24l-.49-1.05c.71-.34,1.42-.66,2.13-.98l.47,1.06c-.71.32-1.41.64-2.11.96Zm83.11-.75c-.7-.32-1.4-.62-2.11-.92l.45-1.07c.72.3,1.43.61,2.14.93l-.48,1.06Zm-78.87-1.13l-.45-1.07c.72-.3,1.45-.59,2.18-.88l.42,1.08c-.72.28-1.44.57-2.15.86Zm74.63-.67c-.72-.29-1.44-.56-2.16-.83l.4-1.09c.73.27,1.46.55,2.19.83l-.43,1.08Zm-70.31-1.02l-.39-1.09c.73-.27,1.47-.52,2.21-.77l.37,1.1c-.73.25-1.46.5-2.19.76Zm65.97-.58c-.73-.25-1.46-.49-2.2-.72l.35-1.1c.74.23,1.49.48,2.22.73l-.38,1.1Zm-61.57-.89l-.34-1.11c.75-.23,1.49-.45,2.24-.67l.32,1.12c-.74.21-1.48.43-2.22.66Zm57.16-.5c-.74-.22-1.48-.42-2.23-.62l.3-1.12c.75.2,1.5.41,2.25.63l-.32,1.11Zm-52.71-.76l-.29-1.12c.75-.2,1.51-.38,2.27-.56l.26,1.13c-.75.18-1.5.36-2.24.55Zm48.24-.42c-.75-.18-1.5-.35-2.26-.52l.25-1.13c.76.16,1.52.34,2.28.52l-.27,1.13Zm-43.74-.63l-.24-1.14c.76-.16,1.53-.31,2.29-.45l.21,1.14c-.76.14-1.52.29-2.27.45Zm39.22-.34c-.76-.14-1.52-.28-2.28-.41l.19-1.14c.77.13,1.54.26,2.3.41l-.22,1.14Zm-34.67-.5l-.18-1.15c.77-.12,1.54-.24,2.31-.34l.16,1.15c-.76.11-1.53.22-2.29.34Zm30.11-.26c-.76-.11-1.53-.21-2.29-.3l.14-1.15c.78.09,1.55.2,2.32.3l-.16,1.15Zm-25.53-.37l-.13-1.15c.77-.09,1.55-.17,2.33-.24l.1,1.16c-.77.07-1.54.15-2.3.23Zm20.94-.18c-.76-.07-1.53-.14-2.3-.19l.08-1.16c.78.06,1.56.12,2.33.19l-.11,1.16Zm-16.33-.23l-.08-1.16c.78-.05,1.55-.1,2.33-.13l.05,1.16c-.77.03-1.54.07-2.31.13Zm11.72-.1c-.77-.04-1.54-.07-2.31-.09l.03-1.16c.78.02,1.56.05,2.34.09l-.06,1.16Zm-7.1-.1l-.02-1.16c.78-.02,1.56-.02,2.34-.02h.17v1.16h-.17c-.77,0-1.54,0-2.31.02Z"/><path class="cls-5" d="m298.83,252.22l3.7-2.12-3.69-2.14,3.5-2.44-3.86-1.81,3.27-2.74-4-1.47,3.02-3.01-4.12-1.11,2.75-3.26-4.2-.75,2.46-3.49-4.25-.38,2.14-3.69h-4.27s1.81-3.87,1.81-3.87l-4.25.36,1.47-4-4.2.73,1.11-4.12-4.12,1.09.75-4.2-4.01,1.45.38-4.25-3.87,1.79v-4.26s-3.69,2.13-3.69,2.13l-.37-4.25-3.5,2.44-.73-4.2-3.27,2.74-1.1-4.12-3.02,3.01-1.45-4.01-2.75,3.26-1.79-3.87-2.45,3.49-2.13-3.7-2.14,3.69-2.44-3.5-1.81,3.86-2.73-3.27-1.47,4-3.01-3.02-1.11,4.12-3.26-2.75-.75,4.2-3.49-2.45-.38,4.25-3.69-2.14v4.27s-3.87-1.81-3.87-1.81l.36,4.25-4-1.47.73,4.2-4.12-1.11,1.09,4.12-4.2-.75,1.45,4.01-4.25-.38,1.79,3.87h-4.26s2.13,3.69,2.13,3.69l-4.25.36,2.44,3.5-4.2.73,2.73,3.27-4.12,1.09,3.01,3.02-4.01,1.45,3.26,2.75-3.87,1.79,3.49,2.46-3.7,2.12,3.69,2.14-3.5,2.44,3.86,1.81-3.27,2.74,4,1.47-3.02,3.01,4.12,1.11-2.74,3.26,4.2.75-2.45,3.49,4.25.38-2.14,3.69h4.27s-1.81,3.87-1.81,3.87l4.25-.37-1.47,4,4.2-.73-1.11,4.12,4.12-1.1-.75,4.2,4.01-1.45-.38,4.25,3.87-1.8v4.26s3.69-2.12,3.69-2.12l.36,4.25,3.5-2.44.73,4.2,3.27-2.74,1.09,4.12,3.02-3.01,1.45,4.01,2.75-3.26,1.79,3.87,2.45-3.49,2.13,3.7,2.14-3.69,2.44,3.5,1.81-3.86,2.74,3.27,1.46-4,3.01,3.02,1.11-4.12,3.26,2.75.75-4.2,3.49,2.45.38-4.25,3.69,2.14v-4.27s3.87,1.81,3.87,1.81l-.36-4.25,4,1.47-.73-4.2,4.12,1.11-1.09-4.12,4.2.75-1.45-4.01,4.25.38-1.79-3.87h4.26s-2.13-3.69-2.13-3.69l4.25-.36-2.44-3.5,4.2-.73-2.73-3.27,4.12-1.09-3.01-3.02,4.01-1.45-3.26-2.75,3.87-1.79-3.49-2.45Zm-48.92,45.21c-26.19-.05-47.38-21.33-47.33-47.52.05-26.19,21.33-47.38,47.52-47.33s47.38,21.33,47.33,47.52c-.05,26.19-21.33,47.38-47.52,47.33Z"/><polygon class="cls-5" points="169.16 242.71 171.53 247.51 176.82 248.28 172.99 252.01 173.89 257.29 169.16 254.8 164.42 257.29 165.33 252.01 161.5 248.28 166.79 247.51 169.16 242.71"/><polygon class="cls-5" points="330.84 242.71 333.21 247.51 338.51 248.28 334.68 252.01 335.58 257.29 330.84 254.8 326.11 257.29 327.01 252.01 323.18 248.28 328.48 247.51 330.84 242.71"/><path class="cls-5" d="m185.05,212.72l-1.3-.91.77-1.1-5.1-3.58-.77,1.1-1.3-.91,4.83-6.9,2.38,1.67-1.03,1.47-1.07-.75-1.62,2.32,1.78,1.25,1.17-1.67,1.3.91-1.17,1.67,2.02,1.41.83-1.19,1.3.91-3.01,4.3Z"/><path class="cls-5" d="m195.2,197l1.21,1.03-2.99,3.53-1.21-1.03.78-.92-1.52-.71-1.58,1.87.91,1.43.81-.96,1.21,1.03-2.7,3.18-1.21-1.03.75-.89-3.57-5.43-.81.96-1.21-1.03,3.97-4.69,1.21,1.03-.82.96,6.03,2.52.73-.86Zm-5.04,1.31l-2.67-1.23,1.62,2.48,1.06-1.24Z"/><path class="cls-5" d="m197.71,196.77l-2.22-2.32,1.15-1.1c.42.41.83.62,1.23.62.4,0,.73-.13,1-.38.21-.2.32-.44.32-.72,0-.28-.09-.52-.27-.72-.2-.21-.44-.32-.71-.32-.27,0-.69.08-1.23.25-1.15.37-2,.55-2.56.53-.56-.02-1.08-.28-1.55-.77-.57-.59-.82-1.23-.76-1.91.06-.68.32-1.25.8-1.7.54-.52,1.16-.71,1.86-.57l-.54-.57,1.15-1.1,1.98,2.07-1.15,1.1c-.34-.29-.69-.43-1.04-.43-.35,0-.65.12-.89.35-.19.18-.3.39-.34.61-.03.23.03.42.18.58.14.14.32.22.54.25.23.02.71-.1,1.46-.37.72-.26,1.3-.42,1.74-.5.44-.07.88-.04,1.31.09.44.14.83.4,1.19.78.64.67.93,1.36.86,2.08-.07.71-.37,1.32-.9,1.84-.6.57-1.27.79-2.01.66l.55.58-1.16,1.1Z"/><path class="cls-5" d="m204.99,190.12l-.96-1.27,1.13-.85-3.77-4.97-1.13.86,1.33,1.75-1.29.98-2.29-3.01,6.8-5.16,2.29,3.01-1.27.97-1.32-1.75-1.16.88,3.77,4.96,1.13-.86.96,1.27-4.2,3.19Z"/><path class="cls-5" d="m216.1,182.51l-.68-1.44,1.21-.58-2.69-5.62-1.22.58-.68-1.44,7.6-3.63,1.25,2.62-1.62.78-.57-1.18-2.55,1.22.94,1.97,1.84-.88.69,1.44-1.84.88,1.06,2.22,1.31-.63.68,1.44-4.73,2.26Z"/><path class="cls-5" d="m227.78,167.52c1.56-.45,2.92-.35,4.07.29,1.16.65,1.92,1.62,2.29,2.91.37,1.3.24,2.53-.4,3.69s-1.74,1.96-3.3,2.41c-1.62.46-2.99.36-4.13-.32-1.13-.68-1.88-1.64-2.23-2.89-.37-1.29-.24-2.52.39-3.68.63-1.16,1.73-1.96,3.3-2.41Zm.47,1.65c-.7.2-1.21.63-1.54,1.29-.33.66-.36,1.49-.07,2.5.25.89.7,1.53,1.33,1.93.63.4,1.3.49,2.01.29.69-.2,1.21-.63,1.54-1.29s.36-1.49.08-2.47c-.25-.88-.69-1.53-1.31-1.94-.62-.41-1.3-.52-2.04-.3Z"/><path class="cls-5" d="m242.05,164.83c1.62-.16,2.93.19,3.95,1.04,1.02.85,1.59,1.94,1.72,3.28.13,1.35-.23,2.53-1.07,3.55-.84,1.02-2.07,1.61-3.68,1.76-1.67.16-3.01-.2-4-1.07-.99-.87-1.55-1.96-1.67-3.25-.13-1.34.23-2.52,1.06-3.54.83-1.03,2.06-1.61,3.69-1.77Zm.16,1.71c-.72.07-1.3.4-1.75.98-.45.58-.62,1.4-.52,2.44.09.92.4,1.64.95,2.14.55.5,1.19.72,1.92.65.72-.07,1.31-.4,1.76-.99.45-.59.63-1.39.53-2.41-.09-.91-.4-1.63-.93-2.15-.53-.52-1.18-.74-1.95-.67Z"/><path class="cls-5" d="m250.19,173.83l.11-1.59,1.42.1.45-6.22-1.42-.1.12-1.59,4.45.32c.94.07,1.69.18,2.25.34.56.16,1.09.45,1.59.88.49.43.87.99,1.14,1.67.27.68.37,1.43.32,2.24-.05.65-.21,1.27-.47,1.84-.27.58-.57,1.03-.93,1.37-.35.34-.76.6-1.23.78-.47.18-.9.29-1.28.33-.39.04-.98.02-1.77-.03l-4.74-.34Zm3.97-1.31l.59.04c.71.05,1.28,0,1.71-.16.43-.16.79-.45,1.07-.9.29-.45.46-1.04.51-1.8.05-.72-.03-1.33-.25-1.85-.22-.52-.54-.89-.96-1.11-.42-.22-.97-.35-1.64-.4l-.59-.04-.45,6.22Z"/><path class="cls-5" d="m266.89,175.78l.49-1.51,1.36.44,1.92-5.93-1.36-.44.49-1.51,4.24,1.37c.89.29,1.59.58,2.1.86.51.29.95.7,1.33,1.23.38.53.61,1.17.71,1.9.1.73.02,1.48-.23,2.24-.2.62-.5,1.18-.89,1.68-.39.5-.8.87-1.22,1.11-.42.25-.88.4-1.38.47-.5.06-.94.07-1.32,0-.38-.06-.95-.21-1.71-.45l-4.52-1.46Zm4.17-.32l.56.18c.68.22,1.24.3,1.7.26.45-.05.87-.25,1.26-.62.39-.37.69-.91.92-1.63.22-.68.29-1.3.2-1.86-.09-.55-.31-.99-.67-1.3-.36-.31-.85-.57-1.49-.78l-.56-.18-1.91,5.93Z"/><path class="cls-5" d="m278.45,179.76l.72-1.42,1.01.51,2.84-5.55-1.01-.52.72-1.42,7.39,3.77-1.36,2.66-1.6-.82.63-1.24-2.6-1.32-.99,1.93,2.1,1.07-.72,1.42-2.1-1.07-1.12,2.2,2.6,1.33.64-1.25,1.6.82-1.36,2.67-7.39-3.77Z"/><path class="cls-5" d="m287.51,184.56l.91-1.31,1.11.77,3.56-5.11-1.1-.77.91-1.3,4.24,2.96-.91,1.31-1.13-.79-3.56,5.11,2.28,1.59,1.67-2.39,1.5,1.05-2.57,3.69-6.9-4.81Z"/><path class="cls-5" d="m300.82,184.49l1.06-1.18,3.34,3.01-1.06,1.18-.69-.62-2.85,3.16c-.38.42-.64.74-.77.96-.13.22-.18.45-.14.71.04.26.18.49.41.7.24.21.49.34.75.36.26.03.49-.02.69-.15.2-.13.53-.46,1.01-.98l2.77-3.07-.68-.61,1.07-1.18,2.78,2.51-1.06,1.18-.85-.77-3.15,3.5c-.43.48-.76.8-1.01.97-.24.17-.55.28-.93.33-.37.05-.79-.01-1.25-.19s-.92-.47-1.36-.87c-.52-.47-.89-.93-1.12-1.41-.23-.47-.33-.91-.29-1.31.04-.4.14-.75.3-1.03.17-.28.5-.71,1.02-1.28l2.85-3.16-.83-.75Z"/><path class="cls-5" d="m303.16,197.2l1.2-1.05.91,1.04,3.94-.41.74-3.7-.85-.97,1.19-1.05,3.25,3.71-1.19,1.05-.6-.68-.38,2.09,2.04-.19-.56-.64,1.2-1.05,2.8,3.19-1.19,1.05-.86-.98-3.79.36-.74,3.92.89,1.02-1.19,1.05-3.34-3.81,1.19-1.05.62.71.46-2.29-2.28.21.64.73-1.19,1.05-2.89-3.3Z"/><path class="cls-5" d="m310.88,206.22l1.3-.92.65.92,5.08-3.61-.65-.92,1.3-.92,4.8,6.76-2.43,1.73-1.04-1.47,1.14-.81-1.69-2.38-1.77,1.26,1.36,1.92-1.3.92-1.36-1.92-2.01,1.43,1.69,2.38,1.15-.81,1.04,1.47-2.44,1.73-4.8-6.76Z"/><path class="cls-4" d="m250,196.9c-29.32,0-53.1,23.77-53.1,53.1s23.77,53.1,53.1,53.1,53.1-23.77,53.1-53.1-23.77-53.1-53.1-53.1Zm0,96.83c-24.16,0-43.74-19.58-43.74-43.73s19.58-43.74,43.74-43.74,43.73,19.58,43.73,43.74-19.58,43.73-43.73,43.73Z"/><path class="cls-4" d="m251.06,250.61l20.49,35.49c12.49-7.47,20.28-20.97,20.49-35.49h-40.98Zm12.67,7.44c0-2.5,2.03-4.53,4.53-4.53s4.53,2.03,4.53,4.53-2.03,4.53-4.53,4.53-4.53-2.03-4.53-4.53Zm10.69,19.35c-2.5,0-4.53-2.03-4.53-4.53s2.03-4.53,4.53-4.53,4.53,2.03,4.53,4.53-2.03,4.53-4.53,4.53Z"/><path class="cls-4" d="m250,251.23l-20.49,35.49c6.25,3.49,13.31,5.33,20.49,5.33s14.24-1.84,20.49-5.33l-20.49-35.49Zm-6.91,35.24c-2.5,0-4.53-2.03-4.53-4.53s2.03-4.53,4.53-4.53,4.53,2.03,4.53,4.53-2.03,4.53-4.53,4.53Zm9.05-13.58c-2.5,0-4.53-2.03-4.53-4.53s2.03-4.53,4.53-4.53,4.53,2.03,4.53,4.53-2.03,4.53-4.53,4.53Z"/><path class="cls-4" d="m207.96,250.61c.21,14.52,8.01,28.01,20.49,35.49l20.49-35.49h-40.98Zm12.29,21.02c-2.5,0-4.53-2.03-4.53-4.53s2.03-4.53,4.53-4.53,4.53,2.03,4.53,4.53-2.03,4.53-4.53,4.53Zm18.31-9.97c-2.5,0-4.53-2.03-4.53-4.53s2.03-4.53,4.53-4.53,4.53,2.03,4.53,4.53-2.03,4.53-4.53,4.53Z"/><path class="cls-4" d="m228.45,213.9c-12.48,7.47-20.28,20.97-20.49,35.48h40.98l-20.49-35.48Zm-12.73,33.87c-2.5,0-4.53-2.03-4.53-4.53s2.03-4.53,4.53-4.53,4.53,2.03,4.53,4.53-2.03,4.53-4.53,4.53Zm13.79-11.28c-2.5,0-4.53-2.03-4.53-4.53s2.03-4.53,4.53-4.53,4.53,2.03,4.53,4.53-2.03,4.53-4.53,4.53Z"/><path class="cls-4" d="m250,207.95c-7.17,0-14.24,1.84-20.49,5.34l20.49,35.49,20.49-35.49c-6.24-3.49-13.31-5.34-20.49-5.34Zm-4.53,12.89c-2.5,0-4.53-2.03-4.53-4.53s2.03-4.53,4.53-4.53,4.53,2.03,4.53,4.53-2.03,4.53-4.53,4.53Zm7.99,13.05c-2.5,0-4.53-2.03-4.53-4.53s2.03-4.53,4.53-4.53,4.53,2.03,4.53,4.53-2.03,4.53-4.53,4.53Z"/><path class="cls-4" d="m271.55,213.9l-20.49,35.48h40.98c-.21-14.52-8.01-28.01-20.49-35.48Zm1.24,31.65c-2.5,0-4.53-2.03-4.53-4.53s2.03-4.53,4.53-4.53,4.53,2.03,4.53,4.53-2.03,4.53-4.53,4.53Zm0-19.41c-2.5,0-4.53-2.03-4.53-4.53s2.03-4.53,4.53-4.53,4.53,2.03,4.53,4.53-2.03,4.53-4.53,4.53Z"/><path class="cls-5" d="m362.87,255.13l8.55-4.91-8.53-4.95,8.09-5.64-8.93-4.18,7.56-6.32-9.26-3.39,6.98-6.96-9.52-2.57,6.35-7.54-9.71-1.73,5.67-8.06-9.82-.88,4.94-8.52-9.86-.02,4.18-8.92-9.82.84,3.39-9.25-9.71,1.69,2.57-9.51-9.53,2.53,1.73-9.7-9.27,3.35.88-9.82-8.94,4.15.02-9.86-8.54,4.91-.84-9.82-8.08,5.64-1.7-9.71-7.56,6.32-2.53-9.53-6.98,6.96-3.35-9.27-6.35,7.54-4.15-8.94-5.67,8.06-4.91-8.55-4.95,8.53-5.63-8.08-4.18,8.93-6.32-7.56-3.39,9.26-6.96-6.98-2.57,9.52-7.54-6.35-1.73,9.71-8.06-5.67-.88,9.82-8.52-4.94-.02,9.86-8.92-4.18.84,9.82-9.25-3.39,1.69,9.71-9.51-2.57,2.53,9.53-9.7-1.73,3.36,9.27-9.82-.88,4.15,8.94-9.86-.02,4.91,8.55-9.82.84,5.64,8.09-9.71,1.69,6.32,7.56-9.52,2.53,6.96,6.98-9.27,3.35,7.54,6.35-8.94,4.15,8.06,5.67-8.54,4.91,8.53,4.95-8.08,5.63,8.93,4.19-7.56,6.32,9.26,3.39-6.98,6.95,9.52,2.57-6.35,7.54,9.71,1.73-5.67,8.06,9.82.88-4.95,8.52,9.86.02-4.18,8.92,9.82-.84-3.39,9.26,9.71-1.69-2.57,9.51,9.53-2.53-1.73,9.7,9.27-3.35-.88,9.82,8.94-4.15-.02,9.86,8.55-4.91.84,9.82,8.09-5.64,1.69,9.71,7.56-6.32,2.53,9.53,6.99-6.96,3.35,9.27,6.35-7.54,4.15,8.94,5.67-8.06,4.91,8.55,4.95-8.53,5.64,8.08,4.18-8.93,6.32,7.56,3.39-9.26,6.96,6.98,2.57-9.52,7.54,6.35,1.73-9.71,8.06,5.67.88-9.82,8.52,4.95.02-9.86,8.93,4.18-.84-9.82,9.26,3.39-1.69-9.71,9.51,2.57-2.53-9.53,9.7,1.73-3.35-9.27,9.82.88-4.15-8.94,9.86.02-4.91-8.55,9.82-.84-5.64-8.09,9.71-1.69-6.32-7.57,9.53-2.53-6.96-6.98,9.27-3.35-7.54-6.35,8.94-4.15-8.07-5.67Zm-113.09,104.51c-60.55-.12-109.54-49.31-109.41-109.86.12-60.55,49.31-109.54,109.86-109.41,60.55.12,109.54,49.31,109.42,109.86-.12,60.55-49.31,109.54-109.86,109.41Z"/><rect class="cls-5" x="155.76" y="311.73" width="188.49" height="28.04"/><polygon class="cls-5" points="154.35 318.72 127.53 318.72 141.33 332.74 127.53 346.76 165.83 346.76 154.35 342.32 154.35 318.72"/><polygon class="cls-5" points="358.67 332.74 372.46 318.72 345.65 318.72 345.65 342.32 334.18 346.76 372.47 346.76 358.67 332.74"/><polygon class="cls-5" points="155.76 341.49 167.23 345.93 167.23 341.49 161.49 341.49 155.76 341.49"/><polygon class="cls-5" points="344.24 341.49 338.51 341.49 332.77 341.49 332.77 345.93 344.24 341.49"/><path class="cls-1" d="m163.67,328.6v-.96h.81v-3.76h-.81v-.96h5.09v1.75h-1.09v-.79h-1.71v1.31h1.23v.96h-1.23v1.49h.87v.96h-3.17Z"/><path class="cls-1" d="m175.78,327.64v.96h-1.73l-1.28-2.49h-.65v1.52h.71v.96h-2.97v-.96h.78v-3.76h-.78v-.96h3.43c.65,0,1.11.16,1.39.49.29.33.43.7.43,1.11,0,.65-.33,1.12-.98,1.41l.92,1.71h.73Zm-3.66-2.43h.51c.63,0,.94-.22.94-.67,0-.22-.07-.39-.21-.49-.14-.11-.34-.16-.59-.16h-.64v1.33Z"/><path class="cls-1" d="m176.88,328.6v-.96h.68v-3.76h-.68v-.96h5.01v1.8h-1.09v-.84h-1.76v1.31h1.42v.96h-1.42v1.49h1.76v-.85h1.09v1.81h-5.01Z"/><path class="cls-1" d="m183.41,328.6v-1.93h.96c.01.35.11.61.28.78.17.17.37.25.6.25.17,0,.32-.06.44-.18.12-.12.18-.26.18-.42,0-.17-.06-.32-.17-.44-.12-.12-.33-.25-.64-.4-.66-.32-1.1-.59-1.34-.84-.24-.24-.35-.57-.35-.98,0-.5.16-.88.47-1.15.31-.27.66-.41,1.06-.41.45,0,.8.17,1.05.53v-.47h.96v1.73h-.96c-.03-.27-.12-.47-.28-.62-.15-.14-.33-.22-.53-.22-.16,0-.29.04-.4.13-.11.09-.16.2-.16.33,0,.12.04.23.14.33.09.1.35.25.79.44.42.19.74.36.96.51.22.15.4.35.53.59s.2.52.2.83c0,.56-.16.98-.49,1.27-.33.29-.71.43-1.16.43-.5,0-.88-.18-1.15-.55v.49h-.96Z"/><path class="cls-1" d="m188.55,328.6v-.96h.71v-3.76h-.71v-.96h2.74v.96h-.6v1.24h1.55v-1.24h-.58v-.96h2.72v.96h-.71v3.76h.71v.96h-2.72v-.96h.58v-1.55h-1.55v1.55h.6v.96h-2.74Z"/><path class="cls-1" d="m204.25,327.64v.96h-2.79v-.96h.73l-.27-.97h-1.47l-.3.97h.76v.96h-2.52v-.96h.7l1.11-3.76h-.76v-.96h3.71v.96h-.76l1.19,3.76h.68Zm-2.57-1.81l-.47-1.71-.51,1.71h.98Z"/><path class="cls-1" d="m205.31,328.6v-.96h.76v-3.76h-.76v-.96h2.39l2.09,3.54v-2.58h-.74v-.96h2.55v.96h-.8v4.76h-1.27l-2.45-4.21v3.21h.72v.96h-2.49Z"/><path class="cls-1" d="m212.74,328.6v-.96h.86v-3.76h-.86v-.96h2.69c.57,0,1.02.03,1.37.1.34.07.68.22.99.46.32.24.57.56.76.96.19.4.29.84.29,1.33,0,.4-.07.77-.2,1.13-.14.36-.3.65-.5.86-.2.22-.44.39-.71.52-.27.13-.53.21-.76.25-.23.04-.59.06-1.07.06h-2.87Zm2.34-.96h.35c.43,0,.77-.06,1.02-.17.25-.11.45-.31.61-.59.15-.28.23-.65.23-1.1s-.08-.8-.23-1.1c-.15-.3-.36-.51-.62-.62-.26-.12-.6-.17-1-.17h-.35v3.76Z"/><path class="cls-1" d="m223.21,328.6v-.96h.86v-3.76h-.86v-.96h2.69c.57,0,1.02.03,1.37.1.35.07.68.22.99.46.32.24.57.56.76.96.19.4.28.84.28,1.33,0,.4-.06.77-.2,1.13-.14.36-.3.65-.5.86-.2.22-.43.39-.71.52-.27.13-.53.21-.76.25-.23.04-.58.06-1.07.06h-2.87Zm2.34-.96h.35c.43,0,.77-.06,1.02-.17s.45-.31.61-.59c.15-.28.23-.65.23-1.1s-.08-.8-.23-1.1c-.15-.3-.36-.51-.63-.62-.26-.12-.6-.17-1-.17h-.35v3.76Z"/><path class="cls-1" d="m230.83,328.6v-.96h.68v-3.76h-.68v-.96h5.01v1.8h-1.09v-.84h-1.76v1.31h1.42v.96h-1.42v1.49h1.76v-.85h1.09v1.81h-5.01Z"/><path class="cls-1" d="m237.2,328.6v-.96h.81v-3.76h-.81v-.96h3.12v.96h-.83v3.76h1.68v-1.75h1.11v2.72h-5.08Z"/><path class="cls-1" d="m243.38,328.6v-.96h.86v-3.76h-.86v-.96h3.21v.96h-.87v3.76h.87v.96h-3.21Z"/><path class="cls-1" d="m252.72,322.92h.96v2h-.96c-.27-.72-.75-1.08-1.42-1.08-.56,0-.98.19-1.26.57-.29.38-.43.83-.43,1.36s.15,1,.45,1.34c.3.34.68.51,1.15.51.38,0,.72-.13,1-.39.29-.26.48-.62.58-1.08l1.12.53c-.42,1.32-1.36,1.98-2.8,1.98-1.02,0-1.79-.27-2.31-.83-.52-.55-.78-1.24-.78-2.09,0-.6.14-1.12.4-1.57s.63-.79,1.09-1.01c.45-.23.96-.34,1.5-.34.68,0,1.25.18,1.7.53v-.44Z"/><path class="cls-1" d="m255.15,328.6v-.96h.86v-3.76h-.86v-.96h3.21v.96h-.87v3.76h.87v.96h-3.21Z"/><path class="cls-1" d="m262.94,322.83c.98,0,1.75.28,2.31.85.56.57.84,1.26.84,2.07s-.28,1.51-.85,2.07c-.57.57-1.34.85-2.31.85s-1.8-.29-2.34-.87c-.55-.58-.82-1.26-.82-2.05s.28-1.5.84-2.07c.56-.57,1.33-.85,2.32-.85Zm0,1.04c-.44,0-.81.16-1.11.49-.3.33-.46.81-.46,1.44,0,.56.15,1,.45,1.34.3.34.67.5,1.12.5s.81-.16,1.11-.49c.3-.33.46-.8.46-1.42,0-.55-.15-1-.44-1.34-.29-.34-.67-.52-1.13-.52Z"/><path class="cls-1" d="m267.5,323.88v-.96h2.71v.96h-.56v2.57c0,.34.01.59.04.74.03.15.11.27.23.37.12.1.28.15.47.15s.35-.05.48-.14c.13-.09.21-.21.25-.35s.06-.42.06-.85v-2.49h-.55v-.96h2.26v.96h-.69v2.84c0,.39-.02.67-.06.84-.04.18-.13.35-.28.52-.15.17-.36.31-.64.42-.28.11-.6.16-.96.16-.42,0-.78-.06-1.07-.18-.29-.12-.51-.28-.66-.47-.15-.2-.24-.39-.28-.58-.04-.19-.06-.52-.06-.99v-2.57h-.67Z"/><path class="cls-1" d="m274.24,328.6v-1.93h.96c.01.35.1.61.28.78.17.17.37.25.6.25.17,0,.32-.06.44-.18.12-.12.18-.26.18-.42,0-.17-.06-.32-.17-.44-.12-.12-.33-.25-.64-.4-.66-.32-1.1-.59-1.34-.84-.24-.24-.35-.57-.35-.98,0-.5.16-.88.47-1.15.31-.27.67-.41,1.06-.41.45,0,.8.17,1.05.53v-.47h.96v1.73h-.96c-.03-.27-.12-.47-.28-.62-.15-.14-.33-.22-.53-.22-.16,0-.29.04-.4.13-.11.09-.16.2-.16.33,0,.12.05.23.14.33.09.1.35.25.79.44.42.19.74.36.97.51.22.15.4.35.53.59.13.24.19.52.19.83,0,.56-.16.98-.49,1.27-.33.29-.71.43-1.16.43-.5,0-.88-.18-1.15-.55v.49h-.96Z"/><path class="cls-1" d="m282.45,328.6v-1.93h.96c.01.35.11.61.28.78.17.17.37.25.6.25.17,0,.32-.06.44-.18.12-.12.18-.26.18-.42,0-.17-.06-.32-.18-.44-.12-.12-.33-.25-.64-.4-.66-.32-1.1-.59-1.34-.84s-.35-.57-.35-.98c0-.5.16-.88.47-1.15.31-.27.66-.41,1.06-.41.45,0,.8.17,1.05.53v-.47h.96v1.73h-.96c-.03-.27-.12-.47-.28-.62-.15-.14-.33-.22-.53-.22-.16,0-.29.04-.4.13-.11.09-.16.2-.16.33,0,.12.04.23.13.33.09.1.35.25.79.44.42.19.74.36.96.51.22.15.4.35.53.59s.2.52.2.83c0,.56-.16.98-.49,1.27-.33.29-.71.43-1.16.43-.5,0-.88-.18-1.15-.55v.49h-.96Z"/><path class="cls-1" d="m287.51,328.6v-.96h.86v-3.76h-.86v-.96h3.21v.96h-.87v3.76h.87v.96h-3.21Z"/><path class="cls-1" d="m291.95,328.6v-.96h.76v-3.76h-.76v-.96h2.39l2.09,3.54v-2.58h-.74v-.96h2.55v.96h-.8v4.76h-1.27l-2.45-4.21v3.21h.72v.96h-2.49Z"/><path class="cls-1" d="m304.29,322.92h.96v2h-.96c-.27-.72-.74-1.08-1.42-1.08-.55,0-.98.19-1.26.57-.29.38-.43.83-.43,1.36s.15,1,.45,1.34c.3.34.68.51,1.15.51.38,0,.72-.13,1-.39.29-.26.48-.62.58-1.08l1.12.53c-.42,1.32-1.36,1.98-2.8,1.98-1.02,0-1.79-.27-2.31-.83-.52-.55-.78-1.24-.78-2.09,0-.6.14-1.12.4-1.57.27-.45.63-.79,1.09-1.01.45-.23.96-.34,1.5-.34.68,0,1.25.18,1.7.53v-.44Z"/><path class="cls-1" d="m306.83,328.6v-.96h.68v-3.76h-.68v-.96h5.01v1.8h-1.08v-.84h-1.76v1.31h1.42v.96h-1.42v1.49h1.76v-.85h1.08v1.81h-5.01Z"/><path class="cls-1" d="m316.84,328.6v-.91h.78v-3.86h-.83v-.91h2.08v4.77h.74v.91h-2.78Z"/><path class="cls-1" d="m321.81,327.15l.97-.09c.11.49.33.73.65.73.51,0,.8-.54.86-1.62-.3.24-.65.35-1.06.35s-.78-.16-1.08-.47c-.3-.32-.45-.75-.45-1.3s.16-1.01.49-1.37c.32-.36.76-.54,1.34-.54.64,0,1.13.22,1.47.68.34.45.52,1.2.52,2.24,0,1.96-.7,2.94-2.09,2.94-.45,0-.83-.13-1.12-.39s-.46-.64-.5-1.14Zm2.49-1.8v-.06c0-.44-.07-.8-.21-1.11-.14-.3-.35-.45-.63-.45-.18,0-.32.08-.43.25-.11.17-.17.4-.17.69,0,.27.06.49.18.67.11.18.29.27.54.27.22,0,.46-.09.72-.26Z"/><path class="cls-1" d="m330.11,325.62c.66.25.99.72.99,1.41,0,.5-.17.9-.51,1.2-.34.3-.84.45-1.49.45s-1.15-.16-1.48-.47c-.33-.32-.5-.72-.5-1.2,0-.67.34-1.13,1.01-1.38-.56-.32-.84-.75-.84-1.31,0-.44.16-.8.49-1.08.32-.27.77-.41,1.33-.41s1.03.14,1.34.41c.32.27.47.63.47,1.06,0,.57-.27,1.01-.82,1.33Zm-.22,1.29c0-.26-.07-.48-.21-.65-.14-.17-.33-.25-.56-.25s-.41.08-.55.25c-.15.16-.22.38-.22.65s.07.48.22.64c.14.16.33.23.56.23s.41-.07.56-.23c.14-.16.22-.37.22-.64Zm-.11-2.45c0-.22-.06-.41-.17-.55-.12-.14-.28-.21-.49-.21-.2,0-.36.07-.48.2s-.19.32-.19.58c0,.21.06.39.18.53.12.14.28.21.49.21s.37-.07.49-.21.18-.32.18-.55Z"/><path class="cls-1" d="m336.33,326.95l-.05,1.65h-3.64c0-.5.04-.88.12-1.15.08-.27.21-.53.39-.79.19-.26.44-.54.77-.84.43-.4.72-.69.86-.88.14-.19.21-.4.21-.63,0-.17-.05-.32-.16-.43-.1-.11-.23-.17-.39-.17-.22,0-.39.09-.5.28-.11.19-.17.49-.19.91l-1.04-.05c0-.55.08-.96.24-1.24.16-.28.39-.48.67-.6.28-.12.59-.19.92-.19.54,0,.96.15,1.27.45.31.3.46.67.46,1.12,0,.24-.05.46-.14.66-.09.2-.21.37-.35.51-.14.14-.39.34-.76.6-.54.39-.89.7-1.03.93-.14.23-.22.43-.24.6h1.66v-.74h.91Z"/></svg>