<?xml version="1.0" encoding="UTF-8"?><svg id="Layer_1" xmlns="http://www.w3.org/2000/svg" viewBox="0 0 4000 3792"><defs><style>.cls-1,.cls-2{fill:#fff;}.cls-3{fill:#9e5338;}.cls-3,.cls-2,.cls-4,.cls-5,.cls-6,.cls-7,.cls-8,.cls-9,.cls-10,.cls-11,.cls-12,.cls-13,.cls-14,.cls-15,.cls-16{fill-rule:evenodd;}.cls-4{fill:#7d3d31;}.cls-5{fill:#dd131e;}.cls-6{fill:#829833;}.cls-17{fill:#373435;}.cls-7{fill:#e4772e;}.cls-8{fill:#ffa14a;}.cls-9{fill:#b2be38;}.cls-18,.cls-12{fill:#2b1719;}.cls-19{fill:none;}.cls-10{fill:#ffde31;}.cls-11{fill:#ae1824;}.cls-13{fill:#fae99d;}.cls-14{fill:#dc7526;}.cls-15{fill:#f88e32;}.cls-16{fill:#fcbe0d;}</style></defs><path class="cls-5" d="m1955.87,305.73c871.97,0,1578.83,706.87,1578.83,1578.83s-706.87,1578.83-1578.83,1578.83S377.04,2756.52,377.04,1884.56,1083.9,305.73,1955.87,305.73"/><path class="cls-2" d="m103.67,2065.06l-24.13,180.61,57.12,64.06,14.91,15.28-1.68,18.99c-2.39,27.03-7.87,53.46-12.27,80.18-13.77,83.61-30.55,166.68-47.76,249.64-18.14,87.43-35.64,175.02-49.76,263.2-8.57,53.53-17.84,109.12-16.44,163.47l2.92,113.49,112.78,13.15c18.18,2.12,36.51,3.05,54.8,2.58,58.65-1.51,117.57-8.66,174.12-24.64l10.58-2.99,10.67,2.64c66.82,16.54,135.49,24.49,204.33,22.71,92.35-2.38,181.28-25.61,259.12-76.07l26.52-17.19,23.62,21c49.65,44.15,115.7,61.27,181.08,59.58,56.37-1.45,111.32-13.56,163.84-33.77l16.74-6.44,16.15,7.77c37.49,18.03,79.56,25.31,120.98,24.24,34.55-.89,68.81-6.78,102.1-15.89l41.25-11.29,3.7,15.33,116.54-3.02c86.05-2.23,201.15-5.66,280.92-38.86l143.26-59.64-16.84,77.64c-4.79,22.09-6.76,44.76-6.17,67.34,1.93,74.86,39.67,137.86,101.38,179.3,54.48,36.58,120.79,50.55,185.71,48.87,133.1-3.44,242.13-66.4,321.84-171.49,33.03-43.54,60.01-91.28,81.97-141.26l16.85-38.36,38.19,17.22c55.3,24.94,116.56,34.62,176.96,33.06,46.22-1.2,92.03-8.87,136.25-22.33,10.99-3.35,21.91-6.91,32.74-10.75l43.41-15.42,8.39,34.76,116.53-3.02c86.04-2.23,201.18-5.66,280.94-38.87l85.28-35.52-7.4-139.86v-.79c-.39-25.31,3.15-50.43,6.28-75.48,2.71-21.71,5.79-43.38,9.12-65.01l4.3-27.92,27.54-6.24c39.81-9.02,77.31-25.32,111.48-47.63,29.05-18.98,59.2-40.12,81.26-67.24,8.76-10.77,17.3-21.76,25.08-33.28l25.73-38.08-3.73-45.82c-4.97-61.03-19.11-124.31-57.7-173.42-42.88-54.57-107.41-81.49-176.18-79.71-22.46.58-44.49,4.73-65.77,11.92l-5.95,2.01-90.17,2.32c-92.88,2.39-196.31,6.75-285.77,33.2l-14.13,4.18-13.6-5.67c-57.93-24.17-121.42-32.53-183.86-30.92-71.99,1.86-142.59,16.65-207.84,47.43l-35.75,16.86-44.42-83.4,35.9-19.72c69.1-37.96,133.16-85.9,183.95-146.6,10.75-12.85,20.82-26.28,30.21-40.16l.6-.88,3.79-6.07,1.18-2.32c38.41-75.68,57.82-170.47,68.04-254.43l1.58-13.01,7.58-8.42v-.78l6.94-10.44c52.1-78.34,52.43-187.34,34.09-276.35l-3.35-16.24,8.77-14.08c17.27-27.7,27.61-59.06,29.16-91.75,1.01-21.32-1.88-42.91-8.93-63.08l-4.47-12.77,3.92-12.95c4.4-14.54,7.05-29.58,7.77-44.76.57-12.16-.11-24.38-2.12-36.38l-1.76-10.5,3.52-10.05c30.83-88.01,7.33-160.95-54.91-227.54l-10.42-11.14-.72-15.24c-.46-9.68-1.5-19.33-3.07-28.89-42.25-256.08-178.51-476.82-385.51-632.71-215.54-162.32-486.64-237.62-754.67-233.78-253.24,3.62-502.52,83.55-706.92,233.89-196.79,144.74-343.09,348.79-402.21,587.03-9.36,37.7-15.35,76.71-13.83,115.64l.74,19.11-14.03,12.98c-1.27,1.18-2.54,2.36-3.81,3.55-42.82,40.42-80.09,92.08-84.12,152.68-1.39,20.85,4.66,42.41,12.27,61.63l3.46,8.74-.65,9.38c-.43,6.2-.44,12.43-.04,18.63,1,15.71,4.62,31.02,10.35,45.67l5.89,15.04-5.83,15.07c-7.1,18.34-9.95,38.17-8.69,57.78,2.96,46.34,27.55,85.97,59.74,118.09l13.83,13.79-1.83,19.45c-5.34,56.9-1.94,115.75,14.37,170.7l2.18,7.37-.6,7.67c-1.7,21.7-2.65,43.47-2.89,65.24l-2.73,253.51-53.63-17.3c-73.45-23.7-152.06-30.76-228.93-28.77-74.02,1.91-147.81,9.14-221.22,18.45-56.86,7.21-115,12.87-170.58,27.22l-85.35,22.05Z"/><path class="cls-15" d="m1082.22,2105.68c-124.44-111.81-138.78-593.36-83.79-522.31,337.24,435.68,1742.25,350.62,1996.19-69.5,60.07-94.55,71.78,318.94-21.55,503.1-305.96,452.04-1605.46,345.16-1890.85,88.72"/><path class="cls-7" d="m1082.22,2105.68c-25.65-23.05-46.61-61.82-63.26-108.21,573.05,321.36,1737.17,278.2,1980.61-243.49,15.2-21.22,27.6-16.85,36.54,4.69-8.8,92.72-28.87,190.87-63.04,258.29-305.96,452.05-1605.46,345.16-1890.85,88.72"/><path class="cls-18" d="m3013.32,1527.99c-1.06-.08-1.59-.12-.22-.27.83-.1,1.34-.14,1.6-.15l.1.07c-.21.07-.74.2-1.47.36m-2072.24,153.27c.61,138.19,38,368.64,123.53,445.48,8.37,7.52,17.94,15.18,28.61,22.94,165.36,120.23,547.54,203.45,930.04,205.14,384.31,1.7,771.41-78.82,945.12-286.44,9.26-11.07,18.17-22.89,26.68-35.47l1.85-2.96c60.37-119.12,78.67-328.89,68.89-447.13-2.35-28.39-6.41-52.32-11.98-69.42-9.26-28.41-24.67-43.46-46.5-41-12.84,1.45-24.71,9.83-35.09,26.17l-.42.55c-20.13,33.31-48.29,64.51-83.16,93.49-173.58,144.26-506.9,231.28-849.85,248.55-343.14,17.27-694.1-35.51-902.55-170.87-47.17-30.62-86.76-65.36-116.91-104.33-10.59-13.68-22.58-19.11-35.56-17.3-19.63,2.73-32.07,21.96-37.6,53.01-3.52,19.76-5.27,47.3-5.13,79.59Zm158.76,403.36c-72.7-65.31-104.53-275.9-105.1-403.64-.1-21.77.77-40.99,2.56-56.46,30.8,34.44,68.02,65.43,110.54,93.03,217.97,141.54,580.67,196.95,933.59,179.18,353.1-17.77,698.29-109.02,880.84-260.74,33.79-28.09,62.22-58.31,84.34-90.59,2.36,11.4,4.24,25.62,5.6,42.04,9.16,110.76-7.33,305.85-62.52,415.62-6.57,9.55-13.91,19.15-21.97,28.78-162.2,193.87-533.55,269-904.33,267.36-372.58-1.64-742.19-80.79-899.4-195.08-8.44-6.13-16.51-12.65-24.15-19.51Z"/><path class="cls-3" d="m1008.56,1784.76c-162.2-156.75-7.53-518.15,47.52-451.14,337.58,410.8,1654.17,423.75,1908.91,27.16,60.26-89.25,189.33,230.62,95.16,363.58-212.95,293.06-1745.63,356.09-2051.6,60.4"/><path class="cls-4" d="m958.96,1711.03c-72.33-173.41,49.56-435.3,97.13-377.41,337.57,410.8,1654.17,423.74,1908.91,27.16,40.19-59.53,110.99,62.97,125.74,190.62-92.08,5.16-85.95,174.8-169.56,215.15-79.04,38.14-179.29,42.12-292.16-5.42-118.31-49.83-693.38,99.36-1166.7,79.15-163.31-6.98-428.74-85.44-503.36-129.24"/><path class="cls-18" d="m936.78,1427.5c-38.37,112.94-47.87,279.68,53.42,377.57,7.4,7.15,15.48,14.14,24.18,20.92,177.47,138.51,627,192.64,1062.66,176.9,436.65-15.77,862.52-102.28,990.85-244.88v-.11c5.22-5.81,9.82-11.43,13.74-16.82l.21-.22c59.62-84.18,40.85-231.46,1.11-325.19-10.16-23.98-21.76-44.83-33.86-60.63-14.25-18.62-30.13-31.28-46.61-35.72-22.48-6.06-43.03,1.2-59.45,25.52l-.41.55c-15.56,24.22-35.65,46.95-59.69,68.16-158.8,140.12-481.28,209.44-815.89,208.81-335.57-.63-681.49-71.88-885.8-212.86-41.29-28.49-76.61-59.8-104.64-93.91-16.24-19.76-36.1-23.02-57.51-12.96-15.97,7.49-32.13,24.22-46.68,47.46-13.01,20.77-25.42,47.39-35.61,77.43m90.14,336.96c-82.28-79.51-72.4-221.29-39.4-318.45,8.87-26.11,19.26-48.63,29.88-65.58,7.79-12.44,15.01-21.27,20.97-25.43,30.81,36.78,68.98,70.41,113.15,100.89,213.16,147.09,570.45,221.41,915.59,222.06,346.1.66,681.89-73.02,850.64-221.92,27.73-24.47,51.16-51.08,69.64-79.85l-.04-.03c1.31-2.05,1.52-3.08,1.69-3.03,4.57,1.24,10.81,7.13,17.96,16.48,9.32,12.18,18.49,28.79,26.76,48.3,33.96,80.11,51.79,203.48,4.7,269.95l.03.03c-3.18,4.35-6.44,8.4-9.78,12.11l-.05-.06c-118.4,131.58-529.04,212.03-953.4,227.37-425.35,15.37-861.35-35.21-1028.64-165.79-7.07-5.52-13.66-11.21-19.71-17.06Z"/><path class="cls-12" d="m2836.81,1724.57c-156.82,49.07-355.58,79.82-485.36,60.29,131.97,1.04,288.32-50.51,426.28-107.59,13.4-5.54,48.09,52.99,59.08,47.3"/><path class="cls-12" d="m1772.47,1899.96c245.42,12.58,547.04-2.17,732.05-50.45-193.8,30.74-439.28,15.63-659.39-9.02-21.37-2.39-54.79,62.55-72.66,59.47"/><path class="cls-10" d="m2967.18,1120.96c-490.01,6.55-2011.34-311.35-2021.87,669.79,82.64-77.16,175.01-86.39,346.05-43.78,269.13,67.06,550.15,180.37,687.41,305.07,171.37-255.71,448.64-590.44,932.88-213.63,50.08-226,57.61-344.42,64.17-430.21,5.53-72.36-37.76-216.27-8.64-287.25"/><path class="cls-16" d="m989.85,1538.06c-20.95,54.99-35.51,188.92-41.61,257.06,58.04-128.57,121.01-153.28,212.49-206.39-50.74-17.71-108.33-34.87-170.88-50.66"/><path class="cls-16" d="m2083.32,1909.25c51.07-57.67,108.87-110.28,174.59-148.43-83.92-29.28-186.59-57.09-299.46-79.68-310.56-62.15-584.16-51.18-603.1,2-18.93,53.18,242.73,139.08,587.98,141.72,21.11,5.19,127.73,98.45,139.98,84.39"/><path class="cls-16" d="m2512.85,1669.47c24.76.49,50.33,3.15,76.74,8.18-40.49,15.12,182.31-28.71,285.69-39.92,31.03-3.36,35.64,75.36,62.97,70.23,13.94-83.16,28.87-192.9,33.16-243.46-71.17-13.6-159.09-21.03-254.16-19.76-235.97,3.16-426.59,58.73-425.75,124.12.57,44.55,89.87,82.16,221.35,100.62"/><path class="cls-18" d="m2632.43,1124.53c120.06,8.89,225.82,16.73,307.99,17.41-8.32,46.68-.39,106.34,6.98,161.81,5.3,39.89,10.3,77.49,8.36,102.84l-.83,10.94c-6.07,80.12-14.37,189.71-56.16,385.25-237.45-175.55-426.78-182.82-578.94-113.87-148.5,67.29-259.36,206.88-344.94,332.46-66.29-55.37-158.97-108.02-264.92-155.04-126.29-56.05-271.8-104.31-413.9-139.71-87.73-21.86-155.78-30.37-213.2-23.43-43.92,5.31-81.23,19.49-115.73,43.39,34.82-560.07,613.11-655.06,1158.77-648.55,177.62,2.11,353.7,15.17,506.51,26.49m334.49-24.51c-83.97,1.12-199.03-7.4-331.71-17.23-152.37-11.29-327.94-24.3-508.88-26.46-579.33-6.91-1194.33,99.23-1201.14,734.2l-.51,47.58,34.09-31.83c38.11-35.59,78.39-55.5,128.74-61.59,52.18-6.31,115.86,1.88,199.14,22.64,140.13,34.91,283.42,82.42,407.56,137.51,111.72,49.58,207.67,105.15,271.27,162.93l16.96,15.41,12.89-19.24c84.13-125.54,194.02-270.36,340.61-336.79,145.08-65.74,328.59-54.94,563.62,127.95l24.78,19.29,6.94-31.32c48.29-217.94,57.29-336.67,63.77-422.3l.83-10.94c2.32-30.41-2.91-69.84-8.47-111.66-8.3-62.48-17.37-130.73-1.66-169.02l12.11-29.52-30.94.41Z"/><path class="cls-5" d="m2009.11,1721.95c-414.28,5.26-805.45-60.22-1074.79-250.14-124.35-87.68-48.45-163.01,4.73-133.57,284.26,157.38,663.41,241.69,1068.35,236.53,401.71-5.12,758.69-116.35,1034.82-266.04,77.73-40.4,119.55,99.36-1.15,159.58-261.7,172.16-629.3,248.52-1031.95,253.64"/><path class="cls-18" d="m1381.27,1690.53c193.09,44.94,407.39,62.02,628.2,59.22,210.17-2.67,411.03-24.61,592.68-69.26,169.68-41.71,322.76-103.25,451.3-187.39,62.03-31.23,88.06-81.78,90.12-125.26.72-15.21-1.53-29.76-6.24-42.6-5.06-13.79-12.97-25.68-23.18-34.55-21.36-18.58-50.97-24-83.93-6.87l-.42.22c-143.76,77.92-309.82,145.33-492.95,192.41-164.39,42.26-342.28,68.13-529.81,70.52-200.19,2.55-394.04-17-573-56.62-178.6-39.54-342.24-99.12-482.37-176.7-25.63-14.19-54.95-12.17-76.92,1.45-10.83,6.71-19.95,16.21-26.13,27.98-6.14,11.7-9.34,25.49-8.36,40.8,2.06,32.26,23.64,71.89,78.99,110.92,130.31,91.89,287.82,155.19,462.02,195.73m627.48,3.62c-216.37,2.75-426.42-14.01-615.77-58.07-168.15-39.13-319.48-99.73-443.6-187.25-39.36-27.76-54.42-51.34-55.51-68.49-.26-4.18.51-7.75,2.01-10.63,1.47-2.8,3.72-5.1,6.42-6.78,6.71-4.16,15.88-4.65,24.12-.09,144.4,79.95,312.85,141.3,496.53,181.96,182.61,40.43,380.45,60.38,584.8,57.77,192.27-2.45,374.22-28.86,542-71.99,187.21-48.13,357.19-117.14,504.54-196.96,11.15-5.77,19.89-5.07,25.27-.39,3.15,2.74,5.72,6.76,7.51,11.65,2.14,5.84,3.15,12.8,2.79,20.4-1.23,25.93-18.63,57.02-60.49,77.89l-2.71,1.67c-123.71,81.38-271.94,140.99-436.79,181.51-177.77,43.69-374.74,65.17-581.12,67.79Z"/><path class="cls-11" d="m2007.39,1588.39c-414.27,5.26-805.45-60.22-1074.79-250.13-124.34-87.68-48.44-163.01,4.73-133.57,284.26,157.38,663.41,241.69,1068.35,236.53,401.72-5.12,758.69-116.35,1034.82-266.04,77.73-40.4,119.55,99.36-1.15,159.58-261.7,172.16-629.3,248.52-1031.95,253.63"/><path class="cls-18" d="m1379.55,1556.98c193.09,44.94,407.39,62.02,628.2,59.22,210.17-2.67,411.03-24.61,592.68-69.26,169.68-41.7,322.77-103.24,451.3-187.39,62.03-31.23,88.06-81.78,90.12-125.26.72-15.2-1.53-29.76-6.24-42.59-5.07-13.79-12.97-25.68-23.18-34.56-21.37-18.58-50.98-24-83.93-6.86l-.42.22c-143.76,77.93-309.81,145.33-492.95,192.41-164.39,42.26-342.28,68.13-529.81,70.52-200.18,2.55-394.04-17-573-56.62-178.59-39.54-342.24-99.12-482.37-176.7-25.63-14.19-54.95-12.17-76.92,1.45-10.83,6.71-19.95,16.21-26.14,27.98-6.15,11.7-9.34,25.49-8.36,40.8,2.07,32.26,23.64,71.89,78.99,110.92,130.31,91.89,287.82,155.18,462.01,195.73m627.49,3.62c-216.37,2.75-426.42-14.01-615.77-58.07-168.15-39.13-319.47-99.73-443.6-187.25-39.37-27.76-54.42-51.34-55.51-68.49-.27-4.18.5-7.75,2.01-10.63,1.47-2.8,3.72-5.11,6.42-6.78,6.71-4.16,15.88-4.65,24.12-.09,144.4,79.94,312.85,141.3,496.53,181.96,182.61,40.43,380.45,60.38,584.8,57.77,192.27-2.45,374.21-28.86,542-72,187.21-48.12,357.19-117.13,504.53-196.96,11.15-5.77,19.89-5.07,25.27-.38,3.15,2.74,5.72,6.76,7.51,11.65,2.14,5.84,3.15,12.8,2.8,20.39-1.23,25.93-18.63,57.02-60.49,77.9l-2.72,1.67c-123.71,81.38-271.94,141-436.79,181.51-177.78,43.69-374.74,65.17-581.13,67.79Z"/><path class="cls-9" d="m2543.16,1198.13c92.85,89.89,351.85,277.9,424.97,183.11,53.97-69.98,54.11-50.14,130.86-173.12,100.54-161.11-45.45-228.09-147.24-313-175.7-146.54-571.04,145.72-408.58,303.01"/><path class="cls-6" d="m2613.65,1258.95c116.13,91.54,295.58,198.64,354.47,122.29,30.73-39.84,44.01-50.58,63.91-75.13-31.3-26.09-167.2,49.32-176.84,8.73-44.76-188.37-141.87-124.87-241.55-55.89"/><path class="cls-18" d="m2604.11,1224.82c-18.24-15.11-34.3-29.45-47.18-41.92-35.15-34.03-38.72-75.96-22.21-117.18,10.46-26.12,28.62-52.16,51.93-76.23,23.83-24.61,52.94-47.04,84.72-65.38,89.26-51.51,198.54-70.42,267.72-12.72,15.25,12.72,32.71,25.93,50.13,39.1,84,63.51,167.5,126.65,92.81,246.33-49.44,79.22-66.23,97.75-86.81,120.45-11.27,12.44-23.65,26.09-42.81,50.94-.6.78-1.34,1.65-2.21,2.61-25.73,28.54-82.81,15.63-146.37-14.38-69.47-32.81-144.73-86.07-199.72-131.63m-74.72-11.46c13.38,12.95,30.25,27.99,49.58,44.01,57.14,47.34,135.52,102.77,208.15,137.07,78.55,37.09,152.09,49.74,192.49,4.93,1.34-1.48,2.76-3.2,4.23-5.09,17.85-23.15,29.85-36.39,40.79-48.46,21.97-24.24,39.9-44.02,91.31-126.4,95.29-152.68-3.56-227.43-103-302.61-16.13-12.2-32.3-24.43-48.54-37.97-83.75-69.86-210.67-50.07-312.59,8.74-34.96,20.18-67.14,45.01-93.63,72.37-27.01,27.9-48.24,58.53-60.75,89.75-22.91,57.17-17.62,115.66,31.96,163.66Z"/><path class="cls-12" d="m2702.44,1322.72c85.41,11.83,180.27-7.81,225.34-64.27-53.85,36.69-201.73,36.9-282.79,11.16-7.88-2.5,64.38,56.41,57.44,53.11"/><path class="cls-9" d="m2782.93,1213.61c-36.43,76.61-311.85,386.52-414.18,387.89-164.16,2.2-145.56-89.83-276.59-125.5-215.94-58.81-170.62,260.34-418.11,6.74-83.7-85.77-260.53,129.81-308.91-138.65-14.61-81.1.24-47.52,51.11-118.83,20.86-29.23,74.04-64.39,99.85-119.22,10.09-21.45,74.45-148.9,104.65-137.39,199.69,76.12,344.51,67.56,556.09,149.3,97.3,37.59,337.15,106.59,458.67,71.7,24.99-7.18,97.68-18.76,121.38-11.02l26.04,34.98Z"/><path class="cls-6" d="m2531.54,1501.6c-64.01,57.08-125.12,99.4-162.79,99.9-164.16,2.2-145.56-89.83-276.6-125.51-215.94-58.81-170.62,260.36-418.1,6.75-79.69-81.66-243.79,109.81-301.1-103.32,24.24-42.83,57.54-90.33,78.36-87.24,53.52,7.94-44.85,164.84,37.34,132.93,222.46-86.35,244.45,45.25,319.18,61.18,75.34,16.06,108.92-78.91,199.57-44.81,97.61,36.73,337.15,106.59,458.68,71.7,13.23-3.8,39.83-8.83,65.45-11.58"/><path class="cls-18" d="m2568.94,1495.3c104.24-97.62,209.94-225.85,232.1-272.45l5.52-11.62-7.7-10.35-26.04-34.98-9.88-7.23c-12.78-4.17-34.24-4.18-56.72-2.13-28.74,2.61-60.71,8.56-76.11,12.99-46.46,13.34-112.75,10.28-181.43-.46-101.99-15.93-208.08-48.74-264.85-70.67-109.6-42.34-201.11-60.71-291.39-78.83-84.69-17-168.3-33.78-264.78-70.56-21.12-8.05-43.8,9.69-64.62,37.02-28.88,37.91-58.42,96.73-65.06,110.84-15,31.88-41.58,57.64-63.76,79.14-13.46,13.05-25.47,24.69-34.16,36.87-15.69,21.98-27.82,33.32-36.42,41.35-25.5,23.82-30.15,28.17-18.36,93.62,33.83,187.7,123.5,165.86,209.39,144.93,41.17-10.03,81.23-19.79,105.2,4.77,156.27,160.14,208.17,110.03,269.98,50.33,36.04-34.81,76.35-73.73,157.19-51.71,51.18,13.93,78.04,37.63,103.44,60.06,39.81,35.13,76.56,67.56,178.53,66.2,47.92-.64,124.36-56.36,199.92-127.13m189.91-279.91c-29.82,50.38-123.56,161.38-216.98,248.87-69.2,64.81-136.65,115.81-173.39,116.3-87.01,1.16-118.15-26.32-151.89-56.09-28.82-25.43-59.29-52.32-119.34-68.67-102.35-27.88-151.23,19.33-194.93,61.54-46.42,44.83-85.39,82.47-214.11-49.45-39.8-40.78-90.57-28.42-142.74-15.71-65.77,16.03-134.45,32.76-160.52-111.88-7.68-42.61-5.63-44.54,5.59-55.02,9.79-9.15,23.61-22.06,41.86-47.64,6.11-8.57,17.06-19.18,29.34-31.08,24.63-23.88,54.15-52.49,72.44-91.35,6.25-13.28,33.94-68.47,60.43-103.25,10.46-13.73,18.51-23.92,19.18-23.66,98.92,37.71,184.46,54.88,271.11,72.27,88.59,17.78,178.39,35.81,284.9,76.96,58.55,22.62,167.92,56.44,272.92,72.85,73.6,11.51,145.61,14.5,198.16-.58,13.49-3.87,42.3-9.17,68.86-11.58,14.3-1.3,27.4-1.78,35.76-.71l13.33,17.9Z"/><path class="cls-9" d="m1058.04,958.52c-23.02,9.35-207.8,103.02-214.42,202.41-3.66,55.14,182.98,299.37,231.14,333.02,101.09,70.63,232.6-74.03,307.79-152.8,24.29-25.44,74.09-54.64,113.84-95.57.63-.65,62.5-49.78,63.05-50.14-.1-7.8-127.92-78.92-137.1-83.1-64.46-29.31-124.94-68.56-190.1-96.14-42.5-17.99-40.47-25.35-94.99-34.21-10.56-1.72-43.79-26.2-64.75-23.67l-14.46.2Z"/><path class="cls-6" d="m846.78,1179.3c24.54,77.57,184.01,283.92,227.99,314.64,81.66,57.05,183.16-26.38,258.8-102.08-21.02-13.22-130.53,65.14-241.02,8.08-88.29-45.59-177.6-231.08-220.17-225.95-13.57.18-13.29-.7-25.6,5.31"/><path class="cls-18" d="m916.67,1075.89c52.54-49.59,124.97-87.29,145.4-96.49l10.7-.15,2.05-.19c7.64-.92,23.55,7.38,35.66,13.69,9.15,4.78,16.79,8.76,23.72,9.89,34.6,5.62,44.19,10.52,59.67,18.42,7.48,3.82,16.23,8.29,30.81,14.45,33.92,14.36,67.52,32.53,101.1,50.7,29.15,15.77,58.31,31.54,88.53,45.28,5.55,2.52,57.95,31.54,95.88,54.53,7.88,4.77,14.84,5.83,19.98,6.28l-21.38,16.96c-13.22,10.51-25.26,20.22-26.47,21.46l-.16.09c-20.89,21.51-45.31,40.07-66.84,56.43-18.55,14.1-35.12,26.69-47.08,39.22l-8.18,8.59c-71.85,75.49-190.39,200.04-274.08,141.58-25.4-17.74-93.72-100.6-148.72-179.83-41.52-59.81-74.75-115.58-73.5-134.41,1.94-29.21,24.17-59.36,52.91-86.49m134.02-136.81c-15.44,6.26-100.65,48.89-161.08,105.94-35.65,33.66-63.36,72.87-66.12,114.46-1.97,29.55,34.85,94.97,81.11,161.62,57.3,82.55,130.3,170.15,158.95,190.16,111.35,77.79,244.46-62.07,325.15-146.85l8.18-8.59c9.73-10.19,25.06-21.85,42.24-34.9,22.7-17.25,48.43-36.81,71.53-60.58l-.03-.04c1.32-1.15,10.45-8.07,22.76-17.86,17.33-13.79,36.54-29.17,36.8-29.34l9.63-6.29-.15-11.67c-.15-11.65-21.48-28.49-49.08-45.22-38.92-23.59-94.06-53.98-100.18-56.76-29.06-13.21-57.52-28.61-85.98-44-34.06-18.43-68.14-36.85-104.6-52.29-11.48-4.86-20.44-9.44-28.11-13.35-18.76-9.58-30.41-15.53-71.39-22.19-.39-.06-5.53-2.74-11.68-5.95-16.16-8.44-37.22-19.42-56.43-18l-14.42.19-7.08,1.49Z"/><path class="cls-15" d="m1991.15,116.4c-494.36,7.07-920.48,322.54-1028.12,756.18-38.16,153.74,15.12,230.98,221.37,325.54,223.57,102.51,500.12,160.44,822.6,152.92,217.28-5.06,413.01-36.45,585.21-88.41,136.83-41.28,487.13-153.06,454.42-351.34-80.18-486.04-524.64-802.5-1055.48-794.89"/><path class="cls-7" d="m1991.15,116.4c-7.47.11-14.91.29-22.35.54,1416.64,379.03,442.97,1180.39-649.19,1047.18-421.66-51.43-188.92-27.33-277.69-46.3,35.6,26.84,82.58,52.85,142.48,80.31,223.57,102.51,500.12,160.44,822.6,152.92,217.28-5.06,413.01-36.45,585.21-88.41,136.83-41.28,487.13-153.06,454.42-351.34-80.18-486.04-524.64-802.5-1055.48-794.89"/><path class="cls-18" d="m1348.4,356.63c177.38-130.46,401.89-208.99,643.1-212.44,262.37-3.76,502.96,73.3,686.72,211.69,178.7,134.58,303.56,327.31,341.95,560.01,13.88,84.13-58.68,152.9-150.22,205.59-98.2,56.51-217.96,94.13-285.24,114.44-86.41,26.07-178.83,46.9-276.96,61.73-95.2,14.38-195.73,23.14-301.32,25.61-155.15,3.62-299.66-8.14-432.67-32.86-139.47-25.93-265.96-66.09-378.54-117.71-98.54-45.18-159.95-85.35-191.17-131.14h-.1c-29.11-42.68-31.88-93.37-14.85-162,52.28-210.63,182.23-392.68,359.29-522.91M1990.79,88.59c-252.43,3.61-487.56,85.91-673.48,222.66-187.28,137.75-324.85,330.74-380.35,554.37-21.11,85.06-16.34,149.87,23.19,207.86l-.07.05c37.43,54.9,105.81,100.64,213.51,150.02,116.64,53.48,247.24,95,390.79,121.69,136.03,25.29,284.05,37.3,443.2,33.59,108.03-2.52,210.73-11.46,307.83-26.13,100.77-15.22,195.63-36.6,284.31-63.36,69.54-20.98,193.37-59.9,296.33-119.16,109.63-63.09,195.87-149.37,177.04-263.52-40.91-248-173.53-453.06-363.24-595.93-192.83-145.22-444.76-226.08-719.05-222.16Z"/><path class="cls-12" d="m2291.74,1585.1c96.28-37.45,192.49-110.88,222.78-191.55-46.25,66.49-206.19,151.43-302.33,172.88-9.34,2.08,88.13,17.9,79.54,18.67"/><path class="cls-12" d="m1409.07,1426.67c57.06,11.81,125.46,7.44,165.17-19.81-42.74,16.13-144.7,6.71-196.63-12.25-5.05-1.84,35.74,34.27,31.46,32.06"/><path class="cls-12" d="m898.54,1081.12c17.99,73,75.36,155.29,130.36,160.69-43.39-22.7-89.56-138.17-96.11-215.13-.64-7.47-34.49,61.61-34.25,54.44"/><path class="cls-8" d="m1639.31,283.39c-238.41,62.65-405.2,193.45-372.51,292.15,32.68,98.71,252.45,127.94,490.87,65.29,238.42-62.65,405.19-193.45,372.51-292.15-32.68-98.7-252.45-127.93-490.87-65.29"/><path class="cls-14" d="m2481.83,288.29c-22.71,3.21-40.41,14.51-39.53,25.24.87,10.72,20,16.81,42.7,13.59,22.71-3.22,40.41-14.51,39.53-25.24-.87-10.73-20-16.81-42.7-13.6"/><path class="cls-13" d="m2477.16,282.76c-22.71,3.22-40.41,14.51-39.54,25.24.88,10.73,20,16.81,42.7,13.6,22.71-3.21,40.41-14.51,39.54-25.24-.88-10.72-20-16.81-42.7-13.59"/><path class="cls-14" d="m2534.92,407.09c-21.02.96-38.02,9.81-37.96,19.77.06,9.96,17.14,17.24,38.16,16.28,21.02-.96,38.02-9.81,37.96-19.77-.06-9.96-17.14-17.24-38.16-16.28"/><path class="cls-13" d="m2531.02,401.58c-21.02.96-38.02,9.81-37.96,19.77.06,9.96,17.14,17.25,38.16,16.28,21.02-.97,38.01-9.81,37.96-19.77-.06-9.96-17.14-17.24-38.16-16.28"/><path class="cls-14" d="m2376.73,370.89c-20.19,7.35-34.56,20.98-32.09,30.45,2.47,9.47,20.83,11.18,41.03,3.83,20.19-7.35,34.56-20.98,32.09-30.45-2.46-9.47-20.83-11.18-41.02-3.83"/><path class="cls-13" d="m2371.61,366.84c-20.19,7.35-34.56,20.98-32.09,30.46,2.47,9.47,20.84,11.18,41.03,3.83,20.19-7.35,34.56-20.98,32.09-30.45-2.47-9.47-20.84-11.18-41.02-3.83"/><path class="cls-14" d="m2314.02,513.61c-19.31-6.31-37.11-3.93-39.76,5.33-2.65,9.25,10.85,21.86,30.16,28.17,19.31,6.31,37.11,3.92,39.76-5.33,2.65-9.25-10.85-21.86-30.16-28.17"/><path class="cls-13" d="m2311.99,507.17c-19.31-6.31-37.11-3.93-39.76,5.32-2.65,9.25,10.85,21.86,30.16,28.17,19.31,6.31,37.11,3.92,39.76-5.32,2.65-9.25-10.85-21.86-30.16-28.17"/><path class="cls-14" d="m2296.95,287.15c-17.09,16.76-26.44,37.65-20.89,46.65,5.55,9.01,23.9,2.71,40.98-14.06,17.09-16.76,26.44-37.65,20.89-46.65-5.55-9.01-23.9-2.71-40.98,14.06"/><path class="cls-13" d="m2290.64,285.09c-17.09,16.77-26.44,37.65-20.89,46.66,5.55,9,23.9,2.7,40.98-14.06,17.09-16.76,26.44-37.65,20.89-46.65-5.55-9-23.9-2.71-40.98,14.05"/><path class="cls-14" d="m2180.59,407.34c-17.89-3.35-33.85,2.68-35.65,13.47-1.8,10.79,11.24,22.25,29.13,25.6,17.89,3.35,33.85-2.68,35.65-13.47,1.8-10.79-11.24-22.25-29.13-25.6"/><path class="cls-13" d="m2178.33,400.58c-17.89-3.35-33.85,2.68-35.65,13.47-1.8,10.79,11.24,22.25,29.13,25.6,17.89,3.35,33.85-2.68,35.65-13.47,1.8-10.79-11.24-22.25-29.13-25.59"/><path class="cls-14" d="m2092.71,552.21c-18.3-10.61-37.38-10.13-42.64,1.09-5.25,11.22,5.33,28.91,23.62,39.52,18.29,10.61,37.38,10.13,42.63-1.09,5.25-11.22-5.32-28.91-23.62-39.52"/><path class="cls-13" d="m2092.34,543.87c-18.29-10.61-37.38-10.13-42.63,1.09-5.25,11.22,5.32,28.91,23.62,39.52,18.29,10.61,37.38,10.13,42.63-1.09,5.25-11.22-5.33-28.91-23.62-39.52"/><path class="cls-14" d="m1917.45,436.34c-20.77,3.3-36.55,15.98-35.23,28.33,1.32,12.35,19.22,19.69,40,16.39,20.77-3.3,36.54-15.99,35.23-28.34-1.32-12.35-19.22-19.68-39.99-16.38"/><path class="cls-13" d="m1912.89,429.9c-20.77,3.3-36.55,15.98-35.23,28.33,1.32,12.36,19.22,19.69,40,16.39,20.77-3.3,36.54-15.98,35.23-28.34-1.32-12.35-19.22-19.68-40-16.38"/><path class="cls-14" d="m2055.63,309.72c-20.56-3.36-38.72,3.95-40.56,16.34-1.84,12.39,13.33,25.15,33.89,28.52,20.56,3.36,38.71-3.95,40.56-16.34,1.84-12.39-13.33-25.16-33.89-28.52"/><path class="cls-13" d="m2052.9,302.03c-20.56-3.36-38.72,3.95-40.56,16.34-1.84,12.39,13.33,25.16,33.89,28.52,20.56,3.36,38.71-3.95,40.56-16.34,1.84-12.4-13.34-25.16-33.89-28.52"/><path class="cls-14" d="m1932.49,218.74c-20.56-3.36-38.72,3.95-40.56,16.34-1.84,12.39,13.34,25.15,33.9,28.52,20.56,3.36,38.72-3.95,40.56-16.34,1.84-12.39-13.34-25.16-33.9-28.52"/><path class="cls-13" d="m1929.77,211.05c-20.56-3.36-38.72,3.95-40.56,16.34-1.84,12.4,13.34,25.16,33.89,28.52,20.56,3.36,38.72-3.95,40.56-16.34,1.84-12.39-13.33-25.16-33.89-28.52"/><path class="cls-14" d="m1812.71,327.38c-17.28,2.86-30.34,13.82-29.17,24.5,1.17,10.68,16.13,17.01,33.41,14.16,17.28-2.86,30.34-13.82,29.17-24.5-1.17-10.68-16.13-17.01-33.41-14.16"/><path class="cls-13" d="m1808.86,321.82c-17.28,2.85-30.34,13.82-29.17,24.5,1.17,10.68,16.13,17.02,33.41,14.16,17.28-2.86,30.34-13.82,29.17-24.5-1.17-10.67-16.14-17.01-33.42-14.15"/><path class="cls-14" d="m1695.33,256.37c-15.49,9.47-24.45,24.76-19.99,34.17,4.46,9.41,20.63,9.34,36.12-.12,15.5-9.47,24.45-24.77,19.99-34.17-4.46-9.4-20.63-9.34-36.12.13"/><path class="cls-13" d="m1689.94,252.75c-15.49,9.47-24.44,24.77-19.98,34.17,4.46,9.4,20.63,9.34,36.12-.13,15.5-9.47,24.45-24.76,19.99-34.17-4.46-9.4-20.63-9.34-36.12.13"/><path class="cls-14" d="m1544.22,352.61c-16.66,6.24-27.87,19.56-25.02,29.78,2.85,10.21,18.66,13.42,35.33,7.19,16.66-6.24,27.87-19.56,25.02-29.77-2.85-10.21-18.66-13.43-35.33-7.2"/><path class="cls-13" d="m1539.54,347.94c-16.66,6.23-27.87,19.56-25.02,29.77,2.85,10.21,18.66,13.43,35.33,7.2,16.66-6.24,27.87-19.57,25.02-29.78-2.85-10.21-18.66-13.42-35.32-7.19"/><path class="cls-14" d="m1402.89,485.8c-19.03,2.73-33.66,13.61-32.65,24.32,1,10.71,17.24,17.17,36.28,14.44,19.04-2.72,33.66-13.61,32.65-24.32-1-10.71-17.24-17.17-36.28-14.44"/><path class="cls-13" d="m1398.82,480.19c-19.03,2.73-33.65,13.61-32.65,24.32,1,10.71,17.25,17.17,36.28,14.45,19.03-2.73,33.66-13.61,32.65-24.32-1-10.71-17.24-17.17-36.28-14.44"/><path class="cls-14" d="m1310.91,582.5c-19.04,2.73-33.66,13.61-32.65,24.32,1,10.71,17.24,17.17,36.28,14.44,19.03-2.72,33.66-13.61,32.65-24.32-1-10.71-17.24-17.17-36.28-14.44"/><path class="cls-13" d="m1306.84,576.9c-19.04,2.73-33.66,13.61-32.66,24.32,1,10.71,17.25,17.17,36.28,14.45,19.04-2.73,33.66-13.62,32.65-24.32-1-10.71-17.24-17.17-36.27-14.44"/><path class="cls-14" d="m1560.45,569.71c-15.48,13.21-23.38,30.75-17.64,39.21,5.74,8.45,22.93,4.59,38.41-8.61,15.48-13.2,23.38-30.75,17.64-39.2-5.74-8.45-22.93-4.59-38.41,8.61"/><path class="cls-13" d="m1554.33,567.32c-15.48,13.2-23.38,30.75-17.64,39.21,5.74,8.45,22.93,4.59,38.41-8.61,15.48-13.2,23.38-30.76,17.64-39.2-5.74-8.45-22.94-4.59-38.41,8.61"/><path class="cls-14" d="m1685.75,444.95c-18.51-4.66-35.38.13-37.68,10.71-2.3,10.58,10.83,22.93,29.34,27.6,18.5,4.66,35.38-.13,37.68-10.71,2.31-10.58-10.83-22.93-29.34-27.6"/><path class="cls-13" d="m1683.66,438.06c-18.5-4.66-35.37.13-37.68,10.71-2.31,10.58,10.83,22.93,29.33,27.59,18.5,4.66,35.38-.13,37.68-10.71,2.31-10.58-10.83-22.93-29.34-27.6"/><path class="cls-14" d="m1857.76,554.17c-19.09,1.88-34.07,12.11-33.45,22.87.62,10.76,16.6,17.96,35.69,16.08,19.09-1.88,34.07-12.11,33.45-22.87-.62-10.76-16.59-17.95-35.69-16.08"/><path class="cls-13" d="m1853.9,548.38c-19.09,1.88-34.07,12.12-33.45,22.87.62,10.76,16.6,17.96,35.69,16.08,19.09-1.87,34.07-12.11,33.45-22.87-.62-10.76-16.59-17.96-35.69-16.08"/><path class="cls-14" d="m2161.13,232.46c-16.12-6.72-31.94-4.22-35.32,5.6-3.38,9.82,6.95,23.23,23.08,29.95,16.12,6.72,31.94,4.21,35.32-5.61,3.38-9.82-6.95-23.23-23.08-29.95"/><path class="cls-13" d="m2160.09,225.62c-16.12-6.72-31.94-4.21-35.32,5.61-3.38,9.82,6.95,23.23,23.08,29.95,16.13,6.72,31.94,4.21,35.32-5.61,3.38-9.82-6.96-23.22-23.08-29.95"/><path class="cls-12" d="m2869.39,1729.24c14.19-20.85,20.95-60.81,27.42-73.25-5.69,33.91-10.75,65.42-16.44,99.33-39.76-24-76.1-36.13-119.93-69.61,31.27,10.94,77.67,32.59,108.94,43.53"/><path class="cls-12" d="m1959.31,1933.87c21.94-19.63,84.89-51.26,111.21-73.58-13.5,22.53-56.34,42.66-107.29,116.86-86.55-69.54-191.57-102.67-294.11-158.95,73.61,25.76,209.19,77.74,290.18,115.66"/><path class="cls-12" d="m3048.35,1484.98c14.15,70.77,4.49,148.01-36.56,182.74,25.24-42.78,29.9-116.3,5.25-184.07-2.39-6.58,34.28,7.17,31.32,1.32"/><path class="cls-12" d="m1036.23,1750.13c92.83,59.4,218.67,104.46,311.15,95.8-89.14-9.28-204.49-55.74-282.54-121.37-7.57-6.38-22.69,31.9-28.61,25.57"/><path class="cls-12" d="m3030.61,1913.03c-156.82,49.07-565.22,142.59-694.99,123.06,131.97,1.05,531.83-89.63,688.96-190.58,12.25-7.87-4.95,73.2,6.04,67.52"/><path class="cls-12" d="m990.08,1925.33c76,38.82,202.78,83.53,324.57,78.27-86.44-18.1-246.52-60.15-330.66-145.73-6.69-6.81,11.71,72.41,6.09,67.46"/><path class="cls-12" d="m2917.12,2100.23c-116.25,46.81-304.53,103.99-471.85,108.73,124.88-26.09,358.59-83.3,499.27-179.51,11.19-7.65-36.59,76.41-27.41,70.78"/><path class="cls-12" d="m1303.04,2232.38c171.58,23.32,449.37,42.52,696.03,13.6-184.2-.92-657.06-12.81-899.27-135.13-15.58-7.86,216.79,125.29,203.23,121.52"/><path class="cls-14" d="m1188.8,2020.25c-13.75,1.98-24.31,9.9-23.59,17.68.73,7.78,12.46,12.48,26.2,10.5,13.75-1.98,24.31-9.9,23.58-17.68-.72-7.79-12.45-12.48-26.2-10.5"/><path class="cls-13" d="m1185.87,2016.17c-13.75,1.98-24.31,9.9-23.59,17.68.73,7.79,12.46,12.48,26.2,10.5,13.75-1.98,24.31-9.89,23.58-17.68-.72-7.79-12.45-12.48-26.2-10.5"/><path class="cls-14" d="m2023.57,2203.93c-14.41,2.08-25.48,10.37-24.72,18.53.76,8.16,13.06,13.09,27.47,11.01,14.41-2.08,25.48-10.37,24.72-18.53-.76-8.16-13.06-13.09-27.47-11.01"/><path class="cls-13" d="m2020.49,2199.66c-14.41,2.08-25.48,10.37-24.72,18.53.76,8.16,13.06,13.08,27.47,11.01,14.41-2.08,25.48-10.37,24.72-18.53-.76-8.15-13.06-13.08-27.47-11.01"/><path class="cls-14" d="m2761.05,1988.93c-16.79,2.42-29.68,12.08-28.79,21.59.89,9.5,15.21,15.24,31.99,12.82,16.78-2.42,29.67-12.08,28.79-21.58-.89-9.51-15.21-15.25-31.99-12.83"/><path class="cls-13" d="m2757.46,1983.96c-16.79,2.42-29.68,12.08-28.79,21.58.88,9.5,15.21,15.25,31.99,12.82,16.79-2.42,29.68-12.08,28.79-21.58-.88-9.5-15.21-15.24-31.99-12.82"/><path class="cls-14" d="m2468.66,2081.35c-16.78,2.42-29.67,12.08-28.79,21.59.88,9.5,15.21,15.24,31.99,12.82,16.79-2.42,29.68-12.08,28.79-21.59-.88-9.5-15.21-15.24-31.99-12.82"/><path class="cls-13" d="m2465.07,2076.38c-16.78,2.42-29.68,12.08-28.79,21.58.88,9.5,15.21,15.24,31.99,12.82,16.78-2.42,29.67-12.08,28.79-21.58-.88-9.51-15.21-15.24-31.99-12.82"/><path class="cls-14" d="m1571.14,2136.92c-15.6.77-28.19,7.67-28.12,15.42.07,7.75,12.78,13.39,28.38,12.62,15.6-.77,28.19-7.67,28.12-15.42-.07-7.75-12.78-13.4-28.38-12.63"/><path class="cls-13" d="m1568.23,2132.65c-15.6.77-28.19,7.67-28.12,15.42.07,7.75,12.78,13.39,28.38,12.62,15.6-.77,28.19-7.67,28.12-15.42-.07-7.75-12.78-13.4-28.38-12.63"/><path class="cls-14" d="m2412.59,2188.45c-16.1.79-29.09,7.92-29.01,15.91.07,8,13.19,13.82,29.29,13.03,16.1-.8,29.09-7.92,29.02-15.91-.08-8-13.19-13.83-29.29-13.03"/><path class="cls-13" d="m2409.59,2184.04c-16.1.79-29.09,7.92-29.01,15.91.07,8,13.19,13.82,29.29,13.03,16.1-.8,29.09-7.92,29.02-15.91-.07-8-13.19-13.83-29.29-13.03"/><path class="cls-14" d="m2116.99,2088.69c-15.38.76-27.79,7.56-27.72,15.2.07,7.64,12.6,13.2,27.98,12.45,15.38-.76,27.79-7.57,27.72-15.2-.07-7.64-12.6-13.21-27.98-12.45"/><path class="cls-13" d="m2114.12,2084.47c-15.38.76-27.79,7.56-27.72,15.2.07,7.64,12.6,13.2,27.98,12.45,15.38-.76,27.79-7.56,27.71-15.2-.07-7.64-12.6-13.21-27.98-12.45"/><path class="cls-14" d="m1400.61,2077.06c-15.89.78-28.71,7.81-28.64,15.7.07,7.89,13.01,13.64,28.9,12.86,15.89-.78,28.71-7.81,28.64-15.7-.07-7.89-13.01-13.64-28.9-12.86"/><path class="cls-13" d="m1397.64,2072.7c-15.89.78-28.7,7.81-28.63,15.7.07,7.89,13.02,13.64,28.9,12.86,15.89-.78,28.71-7.81,28.64-15.7-.08-7.89-13.02-13.64-28.91-12.86"/><path class="cls-14" d="m1831.79,2190.17c-11.62-3.93-22.69-2.52-24.71,3.17-2.03,5.69,5.75,13.49,17.38,17.42,11.62,3.93,22.68,2.52,24.71-3.17,2.03-5.69-5.75-13.49-17.38-17.42"/><path class="cls-13" d="m1830.81,2186.2c-11.62-3.93-22.68-2.52-24.71,3.17-2.03,5.69,5.75,13.49,17.38,17.42,11.62,3.93,22.69,2.52,24.71-3.17,2.03-5.69-5.75-13.49-17.38-17.42"/><path class="cls-14" d="m2724.39,2103.25c-15.89.78-28.71,7.81-28.63,15.7.07,7.89,13.01,13.64,28.9,12.86,15.89-.78,28.71-7.81,28.63-15.7-.08-7.89-13.02-13.64-28.9-12.86"/><path class="cls-13" d="m2721.43,2098.89c-15.89.79-28.71,7.81-28.63,15.7.07,7.89,13.02,13.64,28.9,12.86,15.89-.78,28.7-7.81,28.63-15.7-.07-7.89-13.02-13.64-28.9-12.86"/><path class="cls-14" d="m2305.55,2079.23c-11.62-3.93-22.68-2.52-24.71,3.17-2.03,5.69,5.76,13.49,17.38,17.42,11.62,3.93,22.69,2.52,24.71-3.17,2.03-5.69-5.75-13.49-17.38-17.42"/><path class="cls-13" d="m2304.57,2075.26c-11.62-3.93-22.68-2.51-24.71,3.17-2.02,5.69,5.76,13.49,17.38,17.42,11.62,3.93,22.69,2.52,24.71-3.17,2.03-5.68-5.75-13.49-17.37-17.42"/><path class="cls-14" d="m2623.46,2050.44c-11.62-3.93-22.68-2.52-24.71,3.17-2.02,5.68,5.76,13.49,17.38,17.42,11.62,3.93,22.69,2.52,24.71-3.17,2.03-5.69-5.75-13.49-17.38-17.42"/><path class="cls-13" d="m2622.48,2046.48c-11.62-3.93-22.69-2.52-24.71,3.17-2.03,5.69,5.75,13.49,17.37,17.42,11.62,3.94,22.69,2.52,24.72-3.17,2.02-5.69-5.76-13.49-17.38-17.42"/><path class="cls-14" d="m2252.01,2167.8c-11.62-3.93-22.68-2.52-24.71,3.17-2.02,5.69,5.76,13.49,17.38,17.42,11.62,3.93,22.69,2.52,24.71-3.17,2.03-5.68-5.75-13.49-17.38-17.42"/><path class="cls-13" d="m2251.03,2163.84c-11.62-3.93-22.69-2.52-24.71,3.17-2.03,5.69,5.75,13.49,17.38,17.42,11.62,3.94,22.68,2.52,24.71-3.17,2.02-5.69-5.76-13.49-17.38-17.42"/><path class="cls-14" d="m1560.31,2050.88c-11.62-3.93-22.69-2.52-24.71,3.17-2.03,5.69,5.75,13.49,17.38,17.42,11.62,3.94,22.68,2.52,24.71-3.17,2.03-5.69-5.75-13.49-17.37-17.42"/><path class="cls-13" d="m1559.33,2046.91c-11.62-3.94-22.68-2.52-24.71,3.17-2.02,5.68,5.75,13.48,17.38,17.42,11.62,3.93,22.69,2.52,24.71-3.17,2.03-5.69-5.75-13.49-17.38-17.42"/><path class="cls-14" d="m1279.85,2084.58c-11.62-3.93-22.69-2.52-24.71,3.17-2.03,5.68,5.75,13.49,17.38,17.42,11.62,3.93,22.68,2.51,24.71-3.17,2.03-5.69-5.76-13.49-17.38-17.42"/><path class="cls-13" d="m1278.87,2080.62c-11.62-3.93-22.69-2.52-24.71,3.17-2.03,5.69,5.75,13.49,17.38,17.42,11.62,3.93,22.68,2.52,24.71-3.17,2.02-5.68-5.75-13.49-17.38-17.42"/><path class="cls-14" d="m1947.21,2109.37c-11.62-3.93-22.69-2.52-24.71,3.17-2.03,5.69,5.75,13.49,17.38,17.42,11.62,3.93,22.68,2.51,24.71-3.17,2.02-5.69-5.76-13.48-17.38-17.42"/><path class="cls-13" d="m1946.23,2105.4c-11.62-3.94-22.69-2.52-24.71,3.17-2.03,5.69,5.75,13.49,17.38,17.42,11.62,3.93,22.68,2.52,24.71-3.17,2.02-5.69-5.76-13.49-17.38-17.42"/><path class="cls-14" d="m1756.18,2103.72c-15.38.76-27.79,7.57-27.71,15.2.07,7.64,12.6,13.21,27.98,12.45,15.38-.76,27.79-7.56,27.71-15.2-.07-7.64-12.6-13.2-27.98-12.45"/><path class="cls-13" d="m1753.32,2099.51c-15.38.76-27.79,7.56-27.72,15.2.07,7.64,12.6,13.21,27.98,12.45s27.79-7.56,27.72-15.2c-.07-7.64-12.6-13.21-27.98-12.45"/><path class="cls-12" d="m3041.06,969.65c-106.23,74.18-298.53,189.56-504.31,221.89,155.77-51.26,391.93-176.44,492.94-343.94,7.87-13.05,4.16,131.29,11.37,122.05"/><path class="cls-12" d="m3041.46,821.95c-116.81,114.44-277.29,231.91-397.71,273.87,115.03-59.17,251.9-200.77,349.17-313.64,9.45-10.96,41.24,49.77,48.53,39.77"/><path class="cls-12" d="m963.52,959.38c65.3,66.82,181.22,157.48,309.4,194.54-83.35-48.95-234.76-148.48-292.17-266.67-4.57-9.4-13.13,79.24-17.23,72.13"/><path class="cls-12" d="m969.79,842.71c47.25,70.98,133.3,169.08,233.32,214.57-63.12-54.36-176.97-163.67-213.94-285.34-2.94-9.68-16.64,78.13-19.38,70.77"/><path class="cls-12" d="m2351.14,1223.74c-142.82,32.24-507.78,97.56-817.77,18.72,123.97,5.89,808.07-12.35,817.77-18.72"/><path class="cls-12" d="m541.42,2701.54c-13.79,68.79-27.47,139.14-37.89,208.64,4.37.04,8.34,0,11.59-.09,18.93-.49,29.98-15.75,38.7-30.95,19.02-33.17,27.14-69.38,26.15-107.56-.33-12.78-3.03-53.22-11.73-63.57-4.86-5.28-18.27-6.36-26.81-6.47m348.24-142.49c-4.29,3.74-8.66,7.36-13.09,10.89,6.43,4.69,12.73,9.65,18.9,14.89,17.59,14.91,32.43,31.43,44.73,49.27.63-3.9,1.14-7.71,1.45-11.22-6.01-12.26-23.85-32.67-31.36-40.99l-20.62-22.83Zm2384.02-168.55l17.99-6.21c83.42-28.81,200.26-34.07,288.08-36.34l44.35-1.14,12.56,22.69c31.56-21.75,66.77-36.82,104.98-37.81,50.99-1.32,97.38,17.12,129.2,57.62,30.93,39.38,41.56,93.61,45.54,142.4l2.08,25.57-14.36,21.26c-6.8,10.06-14.37,19.74-22.02,29.15-17.37,21.36-45.05,40.3-68.02,55.3-34.39,22.45-72.3,37.45-112.95,43.45l-4.41.65-4.46.11c-13.14.33-23.95-2.1-33.13-6.47-8.74,49.87-16.98,100.09-23.25,150.32-3.38,27.05-7.3,58.21-6.69,85.58l5.3,100.01-47.61,19.83c-68.64,28.58-186.24,32.52-260.2,34.44l-69.79,1.81-13.86-57.44c-.64-2.64-1.22-5.32-1.75-8.04-10.86,7.32-22.01,14.21-33.42,20.65-30.42,17.16-64.25,29.78-97.59,39.94-39.3,11.96-79.82,18.78-120.91,19.85-86.58,2.24-169.81-20.75-231.83-83.45-3.56-3.59-6.98-7.26-10.28-11-24.61,88.26-61.3,173.94-116.45,246.65-69.19,91.22-161.96,145.64-277.26,148.62-53.38,1.38-107.06-8.9-151.97-39.07-46.18-31.01-74.36-76.75-75.81-132.77-1.1-42.61,8.67-84.56,33.19-119.88,9.36-13.48,20.18-25.55,32.13-36.35-27.67-13.44-52.7-32.76-74.54-57.46-52.87-59.8-69.71-141.18-71.72-218.85-.49-18.61-.14-37.22,1.13-55.72-2.06.35-4.12.68-6.2.99l-4.42.65-4.46.11c-13.14.32-23.95-2.11-33.14-6.47-8.73,49.88-16.98,100.09-23.24,150.32-3.37,27.07-7.29,58.21-6.69,85.59l5.3,100.02-47.62,19.82c-68.65,28.57-186.23,32.52-260.2,34.44l-69.78,1.81-8.88-36.8c-9.93,4.54-19.87,8.82-29.68,12.86-48.87,20.12-102.11,35.62-155.24,36.99-50.35,1.3-95.48-12.03-128.89-41.13-58.9,28.97-122.2,47.63-188.82,49.34-56.02,1.45-111.29-12.71-150.94-54.44-16.93-17.83-29.42-38.01-38.03-59.76-6.15,6.51-12.6,12.87-19.35,19.07-78.66,72.28-175.91,105.06-282.03,107.8-72.95,1.89-144.99-8.01-214.92-27.95-59.2,20.21-122.51,28.63-184.77,30.24-15.56.4-31.14-.41-46.61-2.22l-62.95-7.34-1.64-63.35c-1.24-48.04,8.14-105.37,15.74-152.83,13.95-87.15,31.36-174.19,49.28-260.6,17.34-83.6,34.32-167.74,48.19-251.99,5.54-33.67,14.72-82.87,14.11-117.23-1.07-4.22-4.81-10.93-6.81-14.37-6.07-10.43-13.46-21.87-21.91-30.56l-1.1-1.13-38.58-43.27,15.46-115.69,47.64-12.3c50.18-12.96,111.86-19.32,163.39-25.85,71.28-9.03,143.59-16.16,215.44-18.01,91.52-2.36,187.59,8.85,270.16,50.78,86.38,43.86,131.97,120,134.47,216.43,1.03,39.61-3.81,78.09-15.58,113.93,90.45-20.08,184.79-28.42,277.02-30.8l48.51-1.26,15.45,34.2,6.93-3.23c66.82-31.14,165.87-37.18,238.75-39.06l109.24-2.83.59,22.66c78.38-19.03,174.36-23.15,249.25-25.08l44.35-1.15,12.56,22.7c31.57-21.75,66.77-36.82,104.98-37.81,50.24-1.3,96.01,16.58,127.78,55.84,51.99-39.25,113.05-62.06,182.94-63.87,44.93-1.16,89.9,8.53,132.39,23.39,59.74-16.98,122.16-24.61,184.12-26.21l67.94-1.75,21.23,39.86c6.99,13.13,11,28.73,13.36,44.71,77.34-64.19,170.05-95.23,272.39-97.88,66.21-1.72,133.52,8.85,191.3,41.77Z"/><path class="cls-1" d="m3324.71,3017.86l-10.72.28c-3.01-12.44-4.85-31.84-5.53-58.2-.68-26.37,8.51-94.79,27.56-205.28,19.06-110.49,28.38-173.33,27.99-188.52-.74-28.59-13.5-55.1-38.27-79.5l-12.42-13.09,2.16-20.18c53.19-18.36,141.89-29.15,266.11-32.36,12.2,22.04,20.03,48.22,23.5,78.53,52.05-62.15,98.18-93.75,138.4-94.8,30.39-.78,53.67,9.12,69.85,29.72,16.19,20.6,26.24,54.99,30.17,103.19-4.31,6.36-10.36,14.35-18.16,23.94-7.8,9.59-24.89,23-51.27,40.22-26.39,17.23-54.28,28.01-83.67,32.35-.9.02-7.18-9.65-18.86-29.02-11.69-19.37-20.65-28.98-26.91-28.82-6.25.17-20.77,9.48-43.55,27.96l-12.77,76.79c-22.62,128.46-33.35,214.59-32.22,258.39l2.62,49.56c-38.93,16.21-116.93,25.83-234,28.85m-335.97-294.47c25.82-4.24,51.19-26.14,76.1-65.68,24.91-39.54,37.03-72.5,36.35-98.86-.68-26.36-8.62-39.35-23.81-38.95-22.35.58-42.45,18.53-60.32,53.87-17.86,35.34-27.31,85.21-28.32,149.63Zm-246.65,58.69c-2.86-110.82,28.64-197.93,94.52-261.34,65.88-63.41,148.42-96.4,247.62-98.96,68.81-1.78,124.39,11.77,166.72,40.63,42.33,28.87,64.14,68.32,65.43,118.37.9,34.85-9.45,66.87-31.06,96.04-21.6,29.18-48.29,51.78-80.07,67.8-63.56,32.05-122.06,52.34-175.49,60.88l-33.38,6.23c11.35,58.73,41.6,87.45,90.76,86.19,21.45-.55,45.01-5.86,70.68-15.91,25.67-10.05,45.98-20.19,60.92-30.41l22.44-14,44.39,56.54s-4.78,5.04-14.36,15.12c-5.22,5.5-17.69,16.33-37.39,32.49-19.7,16.16-40.35,30.33-61.95,42.52-21.6,12.18-49.25,23.4-82.97,33.67-33.72,10.26-67.55,15.83-101.51,16.71-75.97,1.97-135.3-18.63-178-61.79-42.7-43.17-65.13-106.75-67.31-190.76Zm-414.53,454.73c16.98-.44,36.2-9.43,57.66-26.97,21.45-17.55,38.84-45.72,52.14-84.52-96.97,19.5-145.01,46.67-144.11,81.53,2.32,20.51,13.76,30.49,34.31,29.96Zm129.71-690.16c-31.28.81-54.49,28.24-69.64,82.29-15.15,54.04-21.91,112.35-20.29,174.91,1.61,62.56,17.17,93.45,46.66,92.69,13.41-.35,32.01-7.09,55.82-20.23,7.72-116.45,16.12-223.98,25.2-322.59-13.54-5.02-26.13-7.37-37.74-7.07Zm4.35,427.81c-61.68,35.58-117.1,54-166.25,55.27-49.15,1.27-90.54-17.11-124.16-55.15-33.62-38.03-51.43-95.47-53.42-172.33-2.66-102.77,23.08-188.39,77.2-256.86,54.12-68.47,120.06-103.71,197.82-105.72,37.53-.97,80.25,8.21,128.14,27.54,54.97-18.41,117.75-28.53,188.35-30.36l22.79-.58c4.7,8.81,7.45,28.64,8.24,59.48.8,30.83-3.22,91.52-12.06,182.07-8.84,90.55-19.18,166.39-31.01,227.51-24.38,129.4-65.97,232.88-124.77,310.42-58.81,77.53-132.45,117.44-220.93,119.72-44.69,1.16-81.13-7.73-109.35-26.68-28.21-18.94-42.71-43.61-43.49-74-.79-30.38,5.94-55.82,20.16-76.3,14.23-20.49,35.02-37.8,62.38-51.92,46.77-24.46,104.35-45.17,172.78-62.15l7.58-69.95Zm-798.3,86.36l-10.73.28c-3.01-12.44-4.85-31.84-5.53-58.2-.69-26.37,8.5-94.79,27.56-205.28,19.05-110.49,28.38-173.33,27.99-188.53-.74-28.6-13.5-55.1-38.27-79.49l-12.41-13.09,2.16-20.18c53.18-18.36,141.89-29.15,266.11-32.36,12.2,22.04,20.03,48.22,23.49,78.53,52.05-62.16,98.18-93.75,138.4-94.8,30.38-.78,53.67,9.12,69.85,29.72,16.18,20.59,26.24,54.99,30.17,103.18-4.31,6.37-10.36,14.36-18.16,23.94-7.8,9.59-24.89,23-51.27,40.23-26.39,17.22-54.27,28.01-83.68,32.35-.89.02-7.18-9.66-18.86-29.02-11.68-19.37-20.65-28.98-26.9-28.82-6.26.16-20.77,9.48-43.55,27.95l-12.77,76.79c-22.62,128.46-33.35,214.59-32.23,258.39l2.63,49.56c-38.93,16.21-116.93,25.83-234,28.86Zm-710.52-98.33c-.97-37.54,9.27-99.73,30.73-186.58,21.45-86.85,31.93-139.89,31.43-159.1-.5-19.22-17.32-47.18-50.46-83.87l2.17-20.18c80.86-19.97,175.81-31.37,284.84-34.19,7.59,16.79,11.81,41.73,12.67,74.8.85,33.06-9.83,95.72-32.03,187.95-22.21,92.24-33.14,145.06-32.8,158.47.67,25.92,12.18,38.59,34.52,38.01,15.19-.4,34.25-6.7,57.19-18.91,2.31-14.37,9.38-52.12,21.22-113.23,27.79-135.75,40.82-237.15,39.08-304.17,40.65-18.94,110.57-29.69,209.77-32.25l36.19-.94c1.04,40.21-8.76,119.17-29.42,236.86-20.66,117.68-30.97,185.47-30.96,203.35.01,17.89,4.04,26.73,12.09,26.52l65.23-19.13,25.87,66.4c-25.39,21.22-62.42,41.86-111.08,61.9-48.66,20.04-91.76,30.54-129.3,31.51-55.41,1.43-90.39-20.03-104.95-64.36-73.02,46.6-143.93,70.8-212.75,72.57-42.9,1.11-74.92-9.47-96.06-31.72-21.14-22.26-32.2-52.15-33.17-89.69Zm-438.77-431.33c50.05-1.29,87.39-26.85,112.04-76.68,24.64-49.82,36.28-101.32,34.91-154.49-1.38-53.18-24.41-79.18-69.09-78.03l-41.42,6.44c0,34.88-16.16,135.9-48.51,303.07l12.06-.31Zm21.3,97.38c-16.98.44-35.27,2.25-54.85,5.44-30.91,153.72-50.38,265.11-58.43,334.19,21.75,11.06,53.4,16.06,94.96,14.98,41.56-1.07,74.96-23.62,100.2-67.65,25.24-44.03,37.17-92.63,35.8-145.81-1.38-53.17-11.72-90.24-31.05-111.2-19.32-20.97-48.2-30.95-86.63-29.95Zm56.37,468.04c-71.5,1.85-143.32-8.82-215.46-32-51.32,21.01-112.73,32.43-184.23,34.27-11.62.3-23.71-.28-36.26-1.74-1.39-53.62,19.78-185.85,63.53-396.69,43.73-210.84,64.98-339.94,63.76-387.31-.34-13.4-5.9-29.36-16.66-47.86-10.76-18.5-21.65-33.43-32.68-44.76l-15.19-17.05,4.5-33.65c23.09-5.96,74.53-14,154.31-24.11,79.78-10.11,149.16-15.93,208.14-17.45,95.62-2.47,174.02,11.82,235.19,42.89,61.16,31.06,92.67,82.11,94.51,153.16,1.84,71.05-18.62,127.25-61.37,168.59-42.76,41.35-97.01,70.03-162.77,86.04,61.83,4.66,114.22,25.22,157.2,61.66,42.97,36.45,65.32,88.19,67.06,155.22,2.19,84.9-27.5,155.65-89.09,212.23-61.58,56.59-139.74,86.11-234.47,88.56Z"/><path class="cls-17" d="m3060.27,3386.11c2.24,2.83,7-.21,11.17-3.5,7.61-6,29.58-25.07,51.42-42.3,1.47-1.16,3.61-2.48,5.33-3.84,3.93-3.09,3.73-4.35-1.42-10.89-6.19-7.85-13.21-15.74-21.07-23.69l-13.84-18.07c-4.83-3.61-8.19-8.38-12.49-13.83-3.61-4.58-6.65-9.96-4.34-14.6,1.84-10.28,5.15-21.73,5.89-32.92l3.76-17.45c-.76-3.99,1.69-9.46,2.41-14.62,1.64-11.54,2.21-15.87,1.69-16.53-3.26-4.14-30.82,7.34-35.91,7.45-8.49.33-21.11-1.03-27.98,4.38-.74.58-.98.77-1.13,1.59,0,17.67-.49,35.73-1.57,53.54-.37,5.59.76,11.06-.79,16.16-28.84-7.31-57.12-11.88-59.96-12.46-2.75.04-9.35-.77-11.8,1.17-.98.77-5.62,12.56-9.13,19.21-1.99,4.04-20.67,31.84-18.95,34.02-4,3.51,52.31,5.78,60.67,7.31,8.96,1.77,23.8,2.44,29.82,10.07,2.92,3.7,3.41,6.85,5.98,10.12,6.44,11.19,15.5,20.66,21.33,31.61,2.23,2.83,5.3,5.72,7.54,8.55,4.81,6.11,8.57,13.39,13.37,19.5m-182.45,130.72c2.76,1.59,7.17-2,9.05-3.11,13.17-7.81,23.82-18.66,36.45-26.15,4.97-2.64-17.62-37.64-23.38-45.52-13.09-18.38-34.7-52.35-46.3-71.29l7.51-5.1c6.99-4.14,13.82-9.17,21.35-13.64,1.88-1.12,4.17-2.15,6.32-3.43l.51-1.59c-.99-1.67-3.27-6.13-4.98-9-4.67-7.87-10.42-15.11-15.23-23.23-1.03-3.57-1.91-6.28-3.47-8.91-2.12-3.58-5.76-1.75-9.25.33-6.72,3.98-13.42,8.61-20.14,12.6-12.09,7.18-24.6,14.28-36.96,21.61-18.27,10.84-33.79,23.28-51.25,33.64-2.96,1.76-5.53,2.31-5.8,2.47-1.88,1.12-1.04,2.55-.33,3.74,1.99,3.34,4.62,5.33,6.87,8.51.43.71,3.55,6.61,3.98,7.32.14.23,1.53,1.35,1.67,1.59l15.11,23.63c.43.71,2.72-.32,3.25-.64,2.14-1.91,21.85-15.22,24.54-16.82l1.08-.63c3.49-2.08,5.38-3.19,9.48,3.73l3.12,5.25c3.25,4.85,21.47,33.73,24.45,38.75.56.95,2.98,5.64,3.41,6.37l23.56,35.4c.28.48,1.99,3.98,2.42,4.69l12.97,19.42Zm-186.67,72.67c.46,1.02.86,2.67,1.66,4.43,2.63,5.81,3.66,6.57,13.34,2.19,11.39-5.16,33.43-16.34,38.2-23.98l8.19-6.14c.29-.13-.06-.89-.4-1.65l-1.49-3.29c-67.26-141.08-56.81-124.79-67.33-148.06-.8-1.77-2.06-4.55-4.62-3.39-6.83,3.09-12.3,7.7-19.13,10.79l-2.27,1.03-.91,1.02-16.92,7.35c-3.87.53-8.14,2.46-11.56,4.01-1.42.64-1.71.77-3.36,2.44,0,0-1.65.14-3.64,1.03.34.76,1.32,3.67,2.23,5.69l68.02,146.53Zm-155.3,76.8c4.16-1.35,8.2-2.08,9.99-2.66,18.04-8.19,70.02-24.17,68.48-28.92-1.29-3.96-2.19-7.75-3.21-10.92l-3.51-10.83c-.69-2.11-1.46-4.49-1.84-6.7-1.66-.05-2.38-1.27-2.55-1.79-3.82,2.4-8.49,4.21-13.25,5.75-1.49.49-6.45,2.39-6.71,1.59l-.47-.43c-13.75-47.48-26.95-94.26-38.42-142.78-2.85-1.7-6.12-.64-12.36,1.39-9.51,3.08-18.21,7.65-27.73,10.74l-26.25,6.18,57.84,179.37Zm-181.37-14.71c.13.54.62,1.28,1.17,2.3l-33.37,8.27-.3-79.12,32.49,68.56Zm-103.15,72.8l-1.53,10.04c-3.57,5.38,27.18-1.72,28.41-2,5.78-1.34,11.5-2.94,17.59-4.35,4.88-1.13,9.63-1.37,14.2-2.43,5.18-1.19,8.16-2.16,12.54-4.03.31-.07.55-.41.85-.48,3.46-3.07,3.52-15.34,3.16-25.23l47.2-10.89c4.49,8.36,9.92,20.78,15.4,19.51,18.88-4.35,32.21-9.14,47.73-14.15,6.4-1.48,24.37-4.2,23-10.15-18.68-28.16-45.29-54.49-65.68-83.12-7.62-10.78-15.83-18.57-25.24-32.92-14.62-21.69-31.79-39.1-34.11-39.41-10.62-1.54-46.3,6.41-57.97,15.65l-25.54,183.93Zm-216.9-16.8c16.67,29.63,36.99,45.34,80.61,42.02,23.37-1.78,35.47-7.43,51.75-24.26-.02-.27.85-1.18,1.11-1.76,4.42-7.85,7.28-15.58,9.78-23.85,5.78-18.81,5.78-39.41,4.41-57.4l-.44-5.81c-1.96-25.74-4.01-52.58-9.42-78.34-1.44-2.39-3.1-3.66-6.84-3.37-.93.07-8.97,1.51-10.19,1.89-17.39,2.16-34.44,4.57-51.79,7.28-2.14.72-1.77,1.53-1.57,4.02.77,10.24,3.63,14.75,6.87,32.6,0,0,.07.83-.23,1.13l7.73,39.77c.88,11.62,3.31,22.86,4.17,34.2l.1,1.38c.53,6.92,1.95,21.56-9.26,22.42-4.05.31-5.65-.12-8.98-2.66-16.94-12.62-13.79-32.9-18.29-50.93l-2-54.96c2.13-9.07.87-17.33.66-20.09-.48-6.37-6.63-4.79-11.3-4.43-11.22.86-22.02,3.07-32.92,3.9-5.93.45-11.3-.25-17.23.2-1.24.09-1.45,1.5-1.99,2.65l-4.09,36.78c.42,1.36.02,4.45.16,6.11,1.83,11.83,3.79,33.39,4.54,35,.42,1.36.75,1.61.81,2.44l.08,1.11c2,17.94,6.52,36.25,13.75,52.96Zm-200.34-12.67l.06-.83c.02-.28-3.35-9.45-5.62-12.68.06-.83-1.94-15.73-2.22-16.03.71-9.41,4.8-58.93,33.78-56.72,14.33,1.09,17.95,23.64,17.15,34.15-.63,8.3-3.39,19.79-4.88,23.01-2.57,8.99-11.51,35.87-27.09,34.68-4.99-.38-7.68-1.98-11.17-5.58Zm57.18,63.92l-.04.55c-.11,1.38,2.99,1.9,3.92,1.97,4.05.31,28-13.73,28.04-14.29.47-6.09-6.45-9.95-10.16-14.69,4.64-7.44,14.28-10.61,19.23-18.02,10.97-16.42,20.19-34.65,21.71-54.58.52-6.92-.55-13.41-.03-20.32.11-1.39.21-2.77.63-4.13-.63-.05-5.36-16-4.86-22.64.13-1.66-7.91-19.53-9.16-19.63-16.87-21.32-46.5-31.37-73.93-33.46-9.35-.72-21.8-1.66-30.83,1.55-21.19-1.62-35.82,9.52-49.65,22.39-2.62,1.47-5.56,7.09-8.15,8.28-17.14,19.3-25.7,41.19-27.56,65.55-1.11,14.67,1.42,30.73,8.87,44.1,4.98,12.91,10.96,24.77,23.51,32.97,15.53,10.09,39.37,13.86,52.14,14.83l21.65-.31c5.96-.1,5.33-.15,9.45-.67l3.16-.32c3.8-.54,6.09-1.76,10.76-1.4l11.29,12.27Zm-402.47-59.23c.89,3.06,6.56,3.53,8.68,4.03,14.91,3.48,30.1,3.04,44.4,6.38,5.41,1.55,13.36-39.35,14.66-49.02,3.28-22.32,11.24-61.79,15.98-83.49l8.95,1.52c7.91,1.85,16.32,2.96,24.83,4.95,2.14.5,4.51,1.34,6.94,1.91l1.47-.8c.44-1.89,1.89-6.68,2.64-9.93,2.09-8.91,2.95-18.12,5.1-27.31,1.73-3.3,2.97-5.86,3.66-8.83.95-4.05-2.95-5.25-6.9-6.18-7.61-1.78-15.65-3.09-23.26-4.86-13.69-3.2-27.63-6.75-41.63-10.02-20.69-4.84-40.49-6.61-60.27-11.23-3.35-.78-5.59-2.16-5.89-2.23-2.13-.5-2.51,1.13-2.83,2.47-.89,3.78-.36,7.04-.94,10.9-.19.82-2.01,7.23-2.2,8.04-.06.27.17,2.03.11,2.3l-5.47,27.51c-.19.81,2.18,1.65,2.79,1.79,2.87.1,26.31,4.15,29.35,4.86l1.22.29c3.95.92,6.09,1.42,4.25,9.26l-1.39,5.94c-1.02,5.74-7.88,39.2-9.2,44.88-.25,1.08-1.76,6.14-1.95,6.96l-7.53,41.85c-.13.54-1.31,4.25-1.51,5.07l-4.09,22.99Zm-114.63-57.02c4.31-4.84,11.44-17.53,15.49-27.57,1.35-3.34,2.2-6.29,2.85-8.73,8.09-35.94-49.07-52.11-39.73-75.27,2.6-6.44,6.72-7.47,11.65-5.49,10.14,4.09,23.11,20.4,29.79,26.38,2.04.82,26.27-20.83,39.23-40.44l.11-.26c.2-.51-1.33-1.73-1.6-2.74-17.52-21.73-27.8-32.17-55.33-43.27-36.81-14.84-71.28-5.4-85.71,30.38-18.8,46.59,40.17,85.04,35.29,97.14-.72,1.8-6.97,5.57-13.92,2.76-16.23-6.55-29.62-41.87-36.28-44.56-3.76-1.52-26.64,28.46-30.28,37.47-.31.77-.23,1.41-.33,1.66-.1.26-.89.54-.89.54,16.25,25.71,42.55,47.39,68.34,57.79,24.06,9.7,47.37,9.53,61.31-5.8Zm-324.9-122.62c.55,5.22,13.6,9.84,12.77,9.43,10.08,5,27.12,12.83,38.32,18.39l60.83,26.46c.84.41,1.28.94,1.84,1.22,1.96.97,4.44,1.58,6.37,1.92-.16-.39-.22-1.66-.1-1.91,1.36-2.74,3.71-4.66,5.07-7.4,3.82-7.71,6.53-15.97,10.48-23.93.74-1.5,1.77-2.85,2.5-4.34l-.91-1.69c.13-.25-5.23-3.52-6.91-4.36-7.84-3.89-49.2-23.17-49.2-23.17-1.32-1.58,3.36-13.82,3.61-14.32.25-.49,2.2-2.32,2.45-2.82l36.9,19.85c5.63,3.42,12.64-19.13,14.24-22.36,2.96-5.97,7.35-10.61,10.43-16.82l-.31-.78c-11.2-5.56-22.05-12.49-38.86-20.82l-2.52-1.25c-3.81-4.98,3.89-16.97,6.47-22.19,9.8,4.86,34.01,19.35,42.13,23.37.56.28,5.29,2,6.13,2.42.56.28,4.67,3.25,6.07,3.95l2.6-2.43c6.04-12.18,12.38-21.44,19.66-36.1,1.36-2.74,2.83-5.72,4.6-8.57l-.44-.52c-14.88-10.79-55.83-27.39-107.7-57.15-1.21.33-9.82,15.58-13.14,22.3-.13.25.03.63-.09.88-12.26,21.19-24.57,41.1-35.31,62.73-4.69,9.45-9.5,19.14-14.47,28.45-1.16,3.76-2.61,7.38-4.46,11.11-3.82,7.71-8.61,15.25-12.31,22.71-2.72,5.47-5.24,11.97-6.71,17.74Zm-67.23-216.88c19.98,14.49,22.69,26.74,17.47,33.92-6.68,9.21-25,9.99-38.4.27-.09-.4-.34-.59-.18-.82l21.11-33.38Zm-43.53,68.56c14.67,10.64,17.19,22.06,11.66,29.7-5.86,8.09-18.76,9.37-32.93-.9l21.27-28.8Zm-91.53,17.63c9.92,10.28,23.11,21.89,37.02,31.98,25.81,18.71,55.04,32.7,74.41,25.15,15.81-6.37,25.53-13.38,30.74-20.57,8.63-11.91,5.26-24.3-2.18-35.87,31.39,8.36,51.64-.95,62.72-16.23,29.65-40.9-9.01-76.48-41.4-99.96-20.99-15.22-42.43-26.65-52.59-31.27-78.24,105.78-92.52,123.88-107.29,142.65l-1.43,4.11Z"/><rect class="cls-19" y="-63" width="4000" height="4000"/></svg>